<?xml version="1.0" encoding="utf-8" standalone="no"?>
<!DOCTYPE svg PUBLIC "-//W3C//DTD SVG 1.1//EN"
  "http://www.w3.org/Graphics/SVG/1.1/DTD/svg11.dtd">
<svg xmlns:xlink="http://www.w3.org/1999/xlink" width="526.79952pt" height="332.39952pt" viewBox="0 0 526.79952 332.39952" xmlns="http://www.w3.org/2000/svg" version="1.1">
 <metadata>
  <rdf:RDF xmlns:dc="http://purl.org/dc/elements/1.1/" xmlns:cc="http://creativecommons.org/ns#" xmlns:rdf="http://www.w3.org/1999/02/22-rdf-syntax-ns#">
   <cc:Work>
    <dc:type rdf:resource="http://purl.org/dc/dcmitype/StillImage"/>
    <dc:date>2026-07-30T18:12:07.508043</dc:date>
    <dc:format>image/svg+xml</dc:format>
    <dc:creator>
     <cc:Agent>
      <dc:title>Matplotlib v3.10.8, https://matplotlib.org/</dc:title>
     </cc:Agent>
    </dc:creator>
   </cc:Work>
  </rdf:RDF>
 </metadata>
 <defs>
  <style type="text/css">*{stroke-linejoin: round; stroke-linecap: butt}</style>
 </defs>
 <g id="figure_1">
  <g id="patch_1">
   <path d="M 0 332.39952
L 526.79952 332.39952
L 526.79952 0
L 0 0
z
" style="fill: #ffffff"/>
  </g>
  <g id="axes_1">
   <g id="patch_2">
    <path d="M 37.014219 176.830414
L 517.253895 176.830414
L 517.253895 21.19375
L 37.014219 21.19375
z
" style="fill: #ffffff"/>
   </g>
   <g id="patch_3">
    <path d="M 58.84575 176.830414
L 417.292263 176.830414
L 417.292263 21.19375
L 58.84575 21.19375
z
" clip-path="url(#pba30ea5d1d)" style="fill: #56b4e9; opacity: 0.22; stroke: #56b4e9; stroke-linejoin: miter"/>
   </g>
   <g id="matplotlib.axis_1">
    <g id="xtick_1">
     <g id="line2d_1">
      <path d="M 79.232635 176.830414
L 79.232635 21.19375
" clip-path="url(#pba30ea5d1d)" style="fill: none; stroke: #b0b0b0; stroke-opacity: 0.18; stroke-width: 0.8; stroke-linecap: square"/>
     </g>
     <g id="line2d_2">
      <defs>
       <path id="mb91e9bab68" d="M 0 0
L 0 3.5
" style="stroke: #000000; stroke-width: 0.8"/>
      </defs>
      <g>
       <use xlink:href="#mb91e9bab68" x="79.232635" y="176.830414" style="stroke: #000000; stroke-width: 0.8"/>
      </g>
     </g>
     <g id="text_1">
      <!-- 1 -->
      <g transform="translate(76.88701 190.225414) scale(0.08 -0.08)">
       <defs>
        <path id="MicrosoftYaHei-31" d="M 1781 0
L 1781 4141
Q 1638 3997 1295 3819
Q 953 3641 663 3569
L 663 4169
Q 1047 4275 1484 4508
Q 1922 4741 2156 4947
L 2388 4947
L 2388 0
L 1781 0
z
" transform="scale(0.015625)"/>
       </defs>
       <use xlink:href="#MicrosoftYaHei-31"/>
      </g>
     </g>
    </g>
    <g id="xtick_2">
     <g id="line2d_3">
      <path d="M 157.365191 176.830414
L 157.365191 21.19375
" clip-path="url(#pba30ea5d1d)" style="fill: none; stroke: #b0b0b0; stroke-opacity: 0.18; stroke-width: 0.8; stroke-linecap: square"/>
     </g>
     <g id="line2d_4">
      <g>
       <use xlink:href="#mb91e9bab68" x="157.365191" y="176.830414" style="stroke: #000000; stroke-width: 0.8"/>
      </g>
     </g>
     <g id="text_2">
      <!-- 2 -->
      <g transform="translate(155.019566 190.225414) scale(0.08 -0.08)">
       <defs>
        <path id="MicrosoftYaHei-32" d="M 2666 3572
Q 2666 3963 2419 4186
Q 2172 4409 1747 4409
Q 1447 4409 1140 4256
Q 834 4103 569 3819
L 569 4413
Q 806 4659 1107 4790
Q 1409 4922 1816 4922
Q 2472 4922 2872 4570
Q 3272 4219 3272 3619
Q 3272 3084 3026 2693
Q 2781 2303 2188 1894
Q 1581 1475 1376 1294
Q 1172 1113 1090 947
Q 1009 781 1009 544
L 3416 544
L 3416 0
L 372 0
L 372 241
Q 372 659 486 951
Q 600 1244 862 1520
Q 1125 1797 1681 2184
Q 2250 2584 2458 2886
Q 2666 3188 2666 3572
z
" transform="scale(0.015625)"/>
       </defs>
       <use xlink:href="#MicrosoftYaHei-32"/>
      </g>
     </g>
    </g>
    <g id="xtick_3">
     <g id="line2d_5">
      <path d="M 235.497746 176.830414
L 235.497746 21.19375
" clip-path="url(#pba30ea5d1d)" style="fill: none; stroke: #b0b0b0; stroke-opacity: 0.18; stroke-width: 0.8; stroke-linecap: square"/>
     </g>
     <g id="line2d_6">
      <g>
       <use xlink:href="#mb91e9bab68" x="235.497746" y="176.830414" style="stroke: #000000; stroke-width: 0.8"/>
      </g>
     </g>
     <g id="text_3">
      <!-- 3 -->
      <g transform="translate(233.152121 190.225414) scale(0.08 -0.08)">
       <defs>
        <path id="MicrosoftYaHei-33" d="M 447 809
Q 944 425 1569 425
Q 2069 425 2361 670
Q 2653 916 2653 1328
Q 2653 2247 1338 2247
L 934 2247
L 934 2753
L 1319 2753
Q 2484 2753 2484 3616
Q 2484 4413 1594 4413
Q 1084 4413 634 4069
L 634 4647
Q 1109 4922 1744 4922
Q 2363 4922 2738 4598
Q 3113 4275 3113 3759
Q 3113 2809 2144 2538
L 2144 2525
Q 2669 2469 2973 2155
Q 3278 1841 3278 1372
Q 3278 719 2808 319
Q 2338 -81 1556 -81
Q 869 -81 447 175
L 447 809
z
" transform="scale(0.015625)"/>
       </defs>
       <use xlink:href="#MicrosoftYaHei-33"/>
      </g>
     </g>
    </g>
    <g id="xtick_4">
     <g id="line2d_7">
      <path d="M 313.630302 176.830414
L 313.630302 21.19375
" clip-path="url(#pba30ea5d1d)" style="fill: none; stroke: #b0b0b0; stroke-opacity: 0.18; stroke-width: 0.8; stroke-linecap: square"/>
     </g>
     <g id="line2d_8">
      <g>
       <use xlink:href="#mb91e9bab68" x="313.630302" y="176.830414" style="stroke: #000000; stroke-width: 0.8"/>
      </g>
     </g>
     <g id="text_4">
      <!-- 4 -->
      <g transform="translate(311.284677 190.225414) scale(0.08 -0.08)">
       <defs>
        <path id="MicrosoftYaHei-34" d="M 2906 4841
L 2906 1644
L 3631 1644
L 3631 1138
L 2906 1138
L 2906 0
L 2313 0
L 2313 1138
L 53 1138
L 53 1616
Q 656 2294 1265 3178
Q 1875 4063 2272 4841
L 2906 4841
z
M 741 1644
L 2313 1644
L 2313 3950
Q 1988 3366 1616 2817
Q 1244 2269 741 1644
z
" transform="scale(0.015625)"/>
       </defs>
       <use xlink:href="#MicrosoftYaHei-34"/>
      </g>
     </g>
    </g>
    <g id="xtick_5">
     <g id="line2d_9">
      <path d="M 391.762857 176.830414
L 391.762857 21.19375
" clip-path="url(#pba30ea5d1d)" style="fill: none; stroke: #b0b0b0; stroke-opacity: 0.18; stroke-width: 0.8; stroke-linecap: square"/>
     </g>
     <g id="line2d_10">
      <g>
       <use xlink:href="#mb91e9bab68" x="391.762857" y="176.830414" style="stroke: #000000; stroke-width: 0.8"/>
      </g>
     </g>
     <g id="text_5">
      <!-- 5 -->
      <g transform="translate(389.417232 190.225414) scale(0.08 -0.08)">
       <defs>
        <path id="MicrosoftYaHei-35" d="M 3294 1494
Q 3294 784 2823 350
Q 2353 -84 1559 -84
Q 878 -84 544 119
L 544 744
Q 1034 425 1544 425
Q 2050 425 2361 704
Q 2672 984 2672 1447
Q 2672 1909 2348 2167
Q 2025 2425 1434 2425
Q 978 2425 613 2384
L 791 4841
L 3053 4841
L 3053 4303
L 1306 4303
L 1206 2931
L 1647 2950
Q 2416 2950 2855 2567
Q 3294 2184 3294 1494
z
" transform="scale(0.015625)"/>
       </defs>
       <use xlink:href="#MicrosoftYaHei-35"/>
      </g>
     </g>
    </g>
    <g id="xtick_6">
     <g id="line2d_11">
      <path d="M 469.895413 176.830414
L 469.895413 21.19375
" clip-path="url(#pba30ea5d1d)" style="fill: none; stroke: #b0b0b0; stroke-opacity: 0.18; stroke-width: 0.8; stroke-linecap: square"/>
     </g>
     <g id="line2d_12">
      <g>
       <use xlink:href="#mb91e9bab68" x="469.895413" y="176.830414" style="stroke: #000000; stroke-width: 0.8"/>
      </g>
     </g>
     <g id="text_6">
      <!-- 6 -->
      <g transform="translate(467.549788 190.225414) scale(0.08 -0.08)">
       <defs>
        <path id="MicrosoftYaHei-36" d="M 3181 4219
Q 2803 4413 2391 4413
Q 1763 4413 1381 3866
Q 1000 3319 994 2372
L 1009 2372
Q 1353 3038 2106 3038
Q 2734 3038 3109 2628
Q 3484 2219 3484 1541
Q 3484 831 3051 375
Q 2619 -81 1947 -81
Q 1209 -81 789 495
Q 369 1072 369 2131
Q 369 3413 920 4167
Q 1472 4922 2372 4922
Q 2888 4922 3181 4781
L 3181 4219
z
M 1031 1584
Q 1031 1106 1286 765
Q 1541 425 1963 425
Q 2363 425 2613 719
Q 2863 1013 2863 1475
Q 2863 1975 2627 2253
Q 2391 2531 1956 2531
Q 1544 2531 1287 2250
Q 1031 1969 1031 1584
z
" transform="scale(0.015625)"/>
       </defs>
       <use xlink:href="#MicrosoftYaHei-36"/>
      </g>
     </g>
    </g>
    <g id="text_7">
     <!-- 任务下达后时间 (s) -->
     <g transform="translate(239.212416 203.408539) scale(0.09 -0.09)">
      <defs>
       <path id="MicrosoftYaHei-4efb" d="M 2138 -3
L 3963 -3
L 3963 1972
L 2025 1972
L 2025 2447
L 3963 2447
L 3963 4306
Q 3188 4253 2338 4209
Q 2306 4428 2250 4691
Q 4356 4803 5969 4978
L 6063 4484
Q 5325 4409 4488 4347
L 4488 2447
L 6319 2447
L 6319 1972
L 4488 1972
L 4488 -3
L 6225 -3
L 6225 -466
L 2138 -466
L 2138 -3
z
M 75 2309
Q 1044 3616 1606 5291
L 2100 5109
Q 1819 4375 1513 3741
L 1513 -841
L 1019 -841
L 1019 2822
Q 666 2225 281 1753
Q 194 2003 75 2309
z
" transform="scale(0.015625)"/>
       <path id="MicrosoftYaHei-52a1" d="M 1900 5391
L 2369 5191
Q 2228 4959 2075 4741
L 5456 4741
L 5456 4322
Q 4875 3616 3866 3088
Q 4916 2706 6369 2616
Q 6169 2334 6019 2091
Q 4391 2306 3288 2819
Q 2047 2291 288 1984
Q 181 2178 31 2422
Q 1597 2663 2750 3103
Q 2038 3538 1609 4131
Q 1125 3556 538 3066
Q 350 3266 194 3403
Q 1344 4316 1900 5391
z
M 588 1728
L 2406 1728
Q 2450 2031 2481 2403
L 2988 2403
Q 2947 2031 2903 1728
L 5425 1728
Q 5363 609 5306 159
Q 5206 -722 4256 -728
Q 3888 -734 3150 -703
Q 3113 -472 3056 -184
Q 3775 -247 4244 -253
Q 4775 -241 4831 284
Q 4888 753 4913 1284
L 2828 1284
Q 2497 -219 500 -897
Q 356 -691 194 -478
Q 1988 103 2319 1284
L 588 1284
L 588 1728
z
M 4788 4328
L 1997 4328
Q 2500 3725 3291 3334
Q 4194 3756 4788 4328
z
" transform="scale(0.015625)"/>
       <path id="MicrosoftYaHei-4e0b" d="M 163 4803
L 6238 4803
L 6238 4291
L 3200 4291
L 3200 2928
L 3488 3328
Q 4919 2484 5888 1809
L 5519 1303
Q 4550 2047 3200 2872
L 3200 -797
L 2631 -797
L 2631 4291
L 163 4291
L 163 4803
z
" transform="scale(0.015625)"/>
       <path id="MicrosoftYaHei-8fbe" d="M 2719 -241
Q 4450 -259 6319 -216
Q 6213 -466 6113 -697
Q 4400 -722 2638 -691
Q 1594 -678 1088 22
Q 906 -122 356 -778
L 88 -247
Q 475 103 863 434
L 863 2616
L 150 2616
L 150 3072
L 1350 3072
L 1350 341
Q 1806 -216 2719 -241
z
M 1875 3791
L 3600 3791
L 3600 5266
L 4100 5266
L 4100 3791
L 6050 3791
L 6050 3334
L 4088 3334
Q 4063 2878 3963 2472
Q 5044 1603 6006 616
L 5631 197
Q 4788 1153 3825 2022
Q 3363 778 2081 72
Q 1913 303 1731 484
Q 3450 1403 3588 3334
L 1875 3334
L 1875 3791
z
M 731 5241
Q 1281 4584 1681 4034
L 1244 3722
Q 831 4347 344 4959
L 731 5241
z
" transform="scale(0.015625)"/>
       <path id="MicrosoftYaHei-540e" d="M 1888 1984
L 5688 1984
L 5688 -828
L 5188 -828
L 5188 -403
L 2388 -403
L 2388 -828
L 1888 -828
L 1888 1984
z
M 1313 2991
Q 1313 1272 1138 672
Q 963 -16 394 -847
Q 250 -634 50 -409
Q 494 222 650 859
Q 806 1472 806 2659
L 806 4766
Q 3544 4853 5631 5141
L 5931 4622
Q 3344 4359 1313 4284
L 1313 3459
L 6263 3459
L 6263 2991
L 1313 2991
z
M 5188 1528
L 2388 1528
L 2388 41
L 5188 41
L 5188 1528
z
" transform="scale(0.015625)"/>
       <path id="MicrosoftYaHei-65f6" d="M 344 4728
L 2500 4728
L 2500 -366
L 2006 -366
L 2006 153
L 838 153
L 838 -441
L 344 -441
L 344 4728
z
M 2706 3941
L 4925 3941
L 4925 5322
L 5425 5322
L 5425 3941
L 6313 3941
L 6313 3478
L 5425 3478
L 5425 116
Q 5425 -722 4625 -722
Q 4263 -722 3563 -703
Q 3531 -478 3463 -178
Q 4119 -228 4488 -228
Q 4925 -228 4925 216
L 4925 3478
L 2706 3478
L 2706 3941
z
M 838 616
L 2006 616
L 2006 2234
L 838 2234
L 838 616
z
M 2006 4266
L 838 4266
L 838 2684
L 2006 2684
L 2006 4266
z
M 3406 2878
Q 3906 1966 4163 1422
Q 4000 1347 3663 1172
Q 3419 1766 2963 2653
L 3406 2878
z
" transform="scale(0.015625)"/>
       <path id="MicrosoftYaHei-95f4" d="M 1863 3647
L 4513 3647
L 4513 553
L 2313 553
L 2313 166
L 1863 166
L 1863 3647
z
M 2388 4453
L 2388 4922
L 6013 4922
L 6013 -28
Q 6013 -816 5119 -816
Q 4756 -816 4169 -803
Q 4144 -616 4069 -297
Q 4588 -334 5056 -334
Q 5525 -334 5525 122
L 5525 4453
L 2388 4453
z
M 419 4084
L 906 4084
L 906 -816
L 419 -816
L 419 4084
z
M 2313 997
L 4063 997
L 4063 1884
L 2313 1884
L 2313 997
z
M 4063 3203
L 2313 3203
L 2313 2328
L 4063 2328
L 4063 3203
z
M 744 5003
L 1100 5322
Q 1575 4872 1981 4447
L 1575 4091
Q 1194 4541 744 5003
z
" transform="scale(0.015625)"/>
       <path id="MicrosoftYaHei-20" transform="scale(0.015625)"/>
       <path id="MicrosoftYaHei-28" d="M 1531 -1100
Q 478 100 478 1847
Q 478 3594 1531 4841
L 2072 4841
Q 1016 3544 1016 1853
Q 1016 166 2066 -1100
L 1531 -1100
z
" transform="scale(0.015625)"/>
       <path id="MicrosoftYaHei-73" d="M 353 747
Q 816 413 1350 413
Q 2066 413 2066 881
Q 2066 1081 1909 1211
Q 1753 1341 1275 1519
Q 700 1750 528 1976
Q 356 2203 356 2525
Q 356 2984 745 3261
Q 1134 3538 1703 3538
Q 2144 3538 2522 3384
L 2522 2794
Q 2134 3044 1644 3044
Q 1350 3044 1165 2916
Q 981 2788 981 2578
Q 981 2372 1114 2256
Q 1247 2141 1703 1959
Q 2281 1744 2484 1512
Q 2688 1281 2688 941
Q 2688 466 2298 192
Q 1909 -81 1291 -81
Q 753 -81 353 122
L 353 747
z
" transform="scale(0.015625)"/>
       <path id="MicrosoftYaHei-29" d="M 78 -1100
Q 1131 163 1131 1853
Q 1131 3547 72 4841
L 616 4841
Q 1672 3603 1672 1847
Q 1672 91 616 -1100
L 78 -1100
z
" transform="scale(0.015625)"/>
      </defs>
      <use xlink:href="#MicrosoftYaHei-4efb"/>
      <use xlink:href="#MicrosoftYaHei-52a1" transform="translate(100 0)"/>
      <use xlink:href="#MicrosoftYaHei-4e0b" transform="translate(200 0)"/>
      <use xlink:href="#MicrosoftYaHei-8fbe" transform="translate(300 0)"/>
      <use xlink:href="#MicrosoftYaHei-540e" transform="translate(400 0)"/>
      <use xlink:href="#MicrosoftYaHei-65f6" transform="translate(500 0)"/>
      <use xlink:href="#MicrosoftYaHei-95f4" transform="translate(600 0)"/>
      <use xlink:href="#MicrosoftYaHei-20" transform="translate(700 0)"/>
      <use xlink:href="#MicrosoftYaHei-28" transform="translate(729.589844 0)"/>
      <use xlink:href="#MicrosoftYaHei-73" transform="translate(762.988281 0)"/>
      <use xlink:href="#MicrosoftYaHei-29" transform="translate(809.277344 0)"/>
     </g>
    </g>
   </g>
   <g id="matplotlib.axis_2">
    <g id="ytick_1">
     <g id="line2d_13">
      <path d="M 37.014219 170.561218
L 517.253895 170.561218
" clip-path="url(#pba30ea5d1d)" style="fill: none; stroke: #b0b0b0; stroke-opacity: 0.18; stroke-width: 0.8; stroke-linecap: square"/>
     </g>
     <g id="line2d_14">
      <defs>
       <path id="ma178691ded" d="M 0 0
L -3.5 0
" style="stroke: #000000; stroke-width: 0.8"/>
      </defs>
      <g>
       <use xlink:href="#ma178691ded" x="37.014219" y="170.561218" style="stroke: #000000; stroke-width: 0.8"/>
      </g>
     </g>
     <g id="text_8">
      <!-- 0 -->
      <g transform="translate(25.322969 173.758718) scale(0.08 -0.08)">
       <defs>
        <path id="MicrosoftYaHei-30" d="M 284 2325
Q 284 3606 709 4264
Q 1134 4922 1941 4922
Q 3478 4922 3478 2441
Q 3478 1216 3045 567
Q 2613 -81 1831 -81
Q 1094 -81 689 534
Q 284 1150 284 2325
z
M 909 2353
Q 909 425 1888 425
Q 2850 425 2850 2384
Q 2850 4413 1906 4413
Q 909 4413 909 2353
z
" transform="scale(0.015625)"/>
       </defs>
       <use xlink:href="#MicrosoftYaHei-30"/>
      </g>
     </g>
    </g>
    <g id="ytick_2">
     <g id="line2d_15">
      <path d="M 37.014219 150.499772
L 517.253895 150.499772
" clip-path="url(#pba30ea5d1d)" style="fill: none; stroke: #b0b0b0; stroke-opacity: 0.18; stroke-width: 0.8; stroke-linecap: square"/>
     </g>
     <g id="line2d_16">
      <g>
       <use xlink:href="#ma178691ded" x="37.014219" y="150.499772" style="stroke: #000000; stroke-width: 0.8"/>
      </g>
     </g>
     <g id="text_9">
      <!-- 2 -->
      <g transform="translate(25.322969 153.697272) scale(0.08 -0.08)">
       <use xlink:href="#MicrosoftYaHei-32"/>
      </g>
     </g>
    </g>
    <g id="ytick_3">
     <g id="line2d_17">
      <path d="M 37.014219 130.438326
L 517.253895 130.438326
" clip-path="url(#pba30ea5d1d)" style="fill: none; stroke: #b0b0b0; stroke-opacity: 0.18; stroke-width: 0.8; stroke-linecap: square"/>
     </g>
     <g id="line2d_18">
      <g>
       <use xlink:href="#ma178691ded" x="37.014219" y="130.438326" style="stroke: #000000; stroke-width: 0.8"/>
      </g>
     </g>
     <g id="text_10">
      <!-- 4 -->
      <g transform="translate(25.322969 133.635826) scale(0.08 -0.08)">
       <use xlink:href="#MicrosoftYaHei-34"/>
      </g>
     </g>
    </g>
    <g id="ytick_4">
     <g id="line2d_19">
      <path d="M 37.014219 110.37688
L 517.253895 110.37688
" clip-path="url(#pba30ea5d1d)" style="fill: none; stroke: #b0b0b0; stroke-opacity: 0.18; stroke-width: 0.8; stroke-linecap: square"/>
     </g>
     <g id="line2d_20">
      <g>
       <use xlink:href="#ma178691ded" x="37.014219" y="110.37688" style="stroke: #000000; stroke-width: 0.8"/>
      </g>
     </g>
     <g id="text_11">
      <!-- 6 -->
      <g transform="translate(25.322969 113.57438) scale(0.08 -0.08)">
       <use xlink:href="#MicrosoftYaHei-36"/>
      </g>
     </g>
    </g>
    <g id="ytick_5">
     <g id="line2d_21">
      <path d="M 37.014219 90.315434
L 517.253895 90.315434
" clip-path="url(#pba30ea5d1d)" style="fill: none; stroke: #b0b0b0; stroke-opacity: 0.18; stroke-width: 0.8; stroke-linecap: square"/>
     </g>
     <g id="line2d_22">
      <g>
       <use xlink:href="#ma178691ded" x="37.014219" y="90.315434" style="stroke: #000000; stroke-width: 0.8"/>
      </g>
     </g>
     <g id="text_12">
      <!-- 8 -->
      <g transform="translate(25.322969 93.512934) scale(0.08 -0.08)">
       <defs>
        <path id="MicrosoftYaHei-38" d="M 306 1350
Q 306 1769 556 2122
Q 806 2475 1200 2625
Q 884 2803 700 3081
Q 516 3359 516 3684
Q 516 4028 692 4312
Q 869 4597 1183 4759
Q 1497 4922 1875 4922
Q 2256 4922 2572 4761
Q 2888 4600 3063 4315
Q 3238 4031 3238 3684
Q 3238 3366 3058 3086
Q 2878 2806 2559 2625
Q 2953 2472 3200 2119
Q 3447 1766 3447 1350
Q 3447 938 3250 611
Q 3053 284 2690 103
Q 2328 -78 1875 -78
Q 1425 -78 1065 103
Q 706 284 506 612
Q 306 941 306 1350
z
M 906 1378
Q 906 947 1172 687
Q 1438 428 1878 428
Q 2309 428 2582 692
Q 2856 956 2856 1378
Q 2856 1778 2579 2051
Q 2303 2325 1878 2325
Q 1456 2325 1181 2058
Q 906 1791 906 1378
z
M 1081 3634
Q 1081 3309 1312 3076
Q 1544 2844 1878 2844
Q 2206 2844 2445 3078
Q 2684 3313 2684 3634
Q 2684 3963 2454 4191
Q 2225 4419 1878 4419
Q 1534 4419 1307 4195
Q 1081 3972 1081 3634
z
" transform="scale(0.015625)"/>
       </defs>
       <use xlink:href="#MicrosoftYaHei-38"/>
      </g>
     </g>
    </g>
    <g id="ytick_6">
     <g id="line2d_23">
      <path d="M 37.014219 70.253987
L 517.253895 70.253987
" clip-path="url(#pba30ea5d1d)" style="fill: none; stroke: #b0b0b0; stroke-opacity: 0.18; stroke-width: 0.8; stroke-linecap: square"/>
     </g>
     <g id="line2d_24">
      <g>
       <use xlink:href="#ma178691ded" x="37.014219" y="70.253987" style="stroke: #000000; stroke-width: 0.8"/>
      </g>
     </g>
     <g id="text_13">
      <!-- 10 -->
      <g transform="translate(20.631719 73.451487) scale(0.08 -0.08)">
       <use xlink:href="#MicrosoftYaHei-31"/>
       <use xlink:href="#MicrosoftYaHei-30" transform="translate(58.642578 0)"/>
      </g>
     </g>
    </g>
    <g id="ytick_7">
     <g id="line2d_25">
      <path d="M 37.014219 50.192541
L 517.253895 50.192541
" clip-path="url(#pba30ea5d1d)" style="fill: none; stroke: #b0b0b0; stroke-opacity: 0.18; stroke-width: 0.8; stroke-linecap: square"/>
     </g>
     <g id="line2d_26">
      <g>
       <use xlink:href="#ma178691ded" x="37.014219" y="50.192541" style="stroke: #000000; stroke-width: 0.8"/>
      </g>
     </g>
     <g id="text_14">
      <!-- 12 -->
      <g transform="translate(20.631719 53.390041) scale(0.08 -0.08)">
       <use xlink:href="#MicrosoftYaHei-31"/>
       <use xlink:href="#MicrosoftYaHei-32" transform="translate(58.642578 0)"/>
      </g>
     </g>
    </g>
    <g id="ytick_8">
     <g id="line2d_27">
      <path d="M 37.014219 30.131095
L 517.253895 30.131095
" clip-path="url(#pba30ea5d1d)" style="fill: none; stroke: #b0b0b0; stroke-opacity: 0.18; stroke-width: 0.8; stroke-linecap: square"/>
     </g>
     <g id="line2d_28">
      <g>
       <use xlink:href="#ma178691ded" x="37.014219" y="30.131095" style="stroke: #000000; stroke-width: 0.8"/>
      </g>
     </g>
     <g id="text_15">
      <!-- 14 -->
      <g transform="translate(20.631719 33.328595) scale(0.08 -0.08)">
       <use xlink:href="#MicrosoftYaHei-31"/>
       <use xlink:href="#MicrosoftYaHei-34" transform="translate(58.642578 0)"/>
      </g>
     </g>
    </g>
    <g id="text_16">
     <!-- 烟幕中心至视线距离 (m) -->
     <g transform="translate(14.394375 148.067004) rotate(-90) scale(0.09 -0.09)">
      <defs>
       <path id="MicrosoftYaHei-70df" d="M 2338 5003
L 5950 5003
L 5950 -828
L 5506 -828
L 5506 -422
L 2781 -422
L 2781 -828
L 2338 -828
L 2338 5003
z
M 5506 4572
L 2781 4572
L 2781 9
L 5506 9
L 5506 4572
z
M 975 5291
L 1425 5291
Q 1419 4153 1384 2763
Q 1616 3309 1894 4091
L 2319 3897
Q 2031 3153 1725 2484
L 1381 2653
Q 1366 2128 1303 1666
Q 1944 853 2263 378
L 1869 59
Q 1600 550 1209 1103
Q 969 -41 400 -766
Q 256 -578 63 -384
Q 950 747 950 2972
Q 969 3878 975 5291
z
M 4475 2297
Q 4963 1497 5344 772
L 4919 541
Q 4594 1225 4147 2000
Q 3916 1084 3269 391
Q 3138 509 2894 678
Q 3772 1581 3828 2897
L 2981 2897
L 2981 3328
L 3844 3328
Q 3853 3684 3863 4322
L 4300 4322
Q 4294 3709 4284 3328
L 5306 3328
L 5306 2897
L 4272 2897
Q 4256 2497 4178 2134
L 4475 2297
z
M 75 3941
L 463 4066
Q 663 3422 894 2634
L 456 2466
Q 231 3409 75 3941
z
" transform="scale(0.015625)"/>
       <path id="MicrosoftYaHei-5e55" d="M 288 1878
L 1919 1878
Q 2134 2078 2309 2297
L 1413 2297
L 1413 2153
L 975 2153
L 975 4078
L 5425 4078
L 5425 2153
L 4988 2153
L 4988 2297
L 2828 2297
Q 2669 2081 2481 1878
L 6119 1878
L 6119 1516
L 4747 1516
Q 5363 1072 6344 772
Q 6181 559 6063 366
Q 5584 559 5175 797
L 5175 159
Q 5175 -441 4594 -441
Q 4294 -441 3881 -428
Q 3863 -259 3806 -9
Q 4256 -53 4463 -53
Q 4756 -53 4756 222
L 4756 628
L 3388 628
L 3388 -841
L 2963 -841
L 2963 628
L 1694 628
L 1694 -447
L 1275 -447
L 1275 863
Q 841 575 331 322
Q 219 497 56 697
Q 884 1059 1488 1516
L 288 1516
L 288 1878
z
M 225 4853
L 2056 4853
L 2056 5284
L 2494 5284
L 2494 4853
L 3906 4853
L 3906 5284
L 4344 5284
L 4344 4853
L 6175 4853
L 6175 4491
L 4344 4491
L 4344 4184
L 3906 4184
L 3906 4491
L 2494 4491
L 2494 4184
L 2056 4184
L 2056 4491
L 225 4491
L 225 4853
z
M 1413 2647
L 4988 2647
L 4988 3022
L 1413 3022
L 1413 2647
z
M 4988 3728
L 1413 3728
L 1413 3359
L 4988 3359
L 4988 3728
z
M 1444 978
L 2963 978
L 2963 1516
L 2119 1516
Q 1813 1234 1444 978
z
M 4209 1516
L 3388 1516
L 3388 978
L 4888 978
Q 4516 1225 4209 1516
z
" transform="scale(0.015625)"/>
       <path id="MicrosoftYaHei-4e2d" d="M 525 3972
L 2931 3972
L 2931 5334
L 3469 5334
L 3469 3972
L 5900 3972
L 5900 1122
L 5388 1122
L 5388 1459
L 3469 1459
L 3469 -866
L 2931 -866
L 2931 1459
L 1038 1459
L 1038 1122
L 525 1122
L 525 3972
z
M 5388 3509
L 3469 3509
L 3469 1922
L 5388 1922
L 5388 3509
z
M 1038 1922
L 2931 1922
L 2931 3509
L 1038 3509
L 1038 1922
z
" transform="scale(0.015625)"/>
       <path id="MicrosoftYaHei-5fc3" d="M 1706 4116
L 2225 4116
L 2225 453
Q 2225 -116 2731 -116
L 4075 -116
Q 4613 -116 4681 334
Q 4750 728 4800 1278
Q 5063 1172 5338 1078
Q 5244 422 5163 97
Q 4994 -603 4175 -603
L 2606 -603
Q 1706 -603 1706 334
L 1706 4116
z
M 5231 3641
Q 5763 2634 6338 1353
L 5819 1097
Q 5338 2309 4763 3422
L 5231 3641
z
M 788 3447
L 1288 3309
Q 1000 1978 600 722
L 100 916
Q 513 2091 788 3447
z
M 3081 5372
Q 3675 4384 4088 3591
Q 3794 3441 3588 3322
Q 3150 4291 2644 5147
L 3081 5372
z
" transform="scale(0.015625)"/>
       <path id="MicrosoftYaHei-81f3" d="M 4263 4147
Q 5225 3334 6013 2559
L 5606 2197
Q 5403 2413 5175 2644
Q 2988 2588 1306 2459
Q 1125 2441 806 2359
L 550 2897
Q 894 3009 1131 3197
Q 1763 3719 2428 4522
L 288 4522
L 288 4972
L 6119 4972
L 6119 4522
L 3116 4522
Q 2394 3722 1556 2959
Q 3019 3022 4738 3072
Q 4363 3438 3925 3834
L 4263 4147
z
M 138 -3
L 2944 -3
L 2944 1066
L 550 1066
L 550 1516
L 2944 1516
L 2944 2366
L 3469 2366
L 3469 1516
L 5825 1516
L 5825 1066
L 3469 1066
L 3469 -3
L 6256 -3
L 6256 -453
L 138 -453
L 138 -3
z
" transform="scale(0.015625)"/>
       <path id="MicrosoftYaHei-89c6" d="M 3925 4047
L 4413 4047
Q 4413 2291 4325 1841
L 4719 1841
L 4719 128
Q 4719 -241 5063 -241
L 5400 -241
Q 5769 -241 5831 84
Q 5875 428 5900 966
Q 6119 866 6375 778
Q 6325 234 6275 -97
Q 6194 -672 5519 -672
L 4981 -672
Q 4238 -672 4238 66
L 4238 1403
Q 3813 -191 2138 -903
Q 2000 -709 1813 -491
Q 3756 253 3888 2334
Q 3925 3028 3925 4047
z
M 2631 4953
L 5769 4953
L 5769 1103
L 5281 1103
L 5281 4516
L 3119 4516
L 3119 1103
L 2631 1103
L 2631 4953
z
M 119 3559
L 119 4009
L 2150 4009
L 2150 3547
Q 1831 2984 1431 2466
L 1431 2122
L 1700 2366
Q 2144 1966 2525 1584
L 2163 1266
Q 1844 1628 1431 2047
L 1431 -822
L 956 -822
L 956 1891
Q 625 1522 250 1178
Q 181 1422 81 1716
Q 1050 2566 1594 3559
L 119 3559
z
M 731 5078
L 1169 5297
Q 1406 4916 1663 4434
L 1200 4197
Q 950 4709 731 5078
z
" transform="scale(0.015625)"/>
       <path id="MicrosoftYaHei-7ebf" d="M 1969 -347
Q 3144 75 4003 631
Q 3781 1197 3653 1972
L 2319 1784
L 2244 2234
L 3591 2422
Q 3538 2859 3513 3356
L 2381 3228
L 2306 3678
L 3488 3809
Q 3453 4459 3425 5303
L 3938 5303
Q 3953 4497 3978 3866
L 6069 4103
L 6125 3659
L 3997 3413
Q 4019 2919 4069 2488
L 6225 2791
L 6281 2347
L 4128 2041
Q 4234 1394 4416 916
Q 5078 1416 5519 2009
L 5925 1703
Q 5363 1025 4619 475
Q 4859 44 5194 -184
Q 5606 -428 5725 66
Q 5806 466 5856 953
Q 6144 828 6338 772
Q 6231 97 6125 -247
Q 5944 -778 5506 -778
Q 5050 -778 4663 -403
Q 4409 -163 4209 194
Q 3350 -363 2281 -772
Q 2169 -597 1969 -347
z
M 900 1541
Q 1456 1622 2213 1753
Q 2175 1522 2156 1272
Q 1113 1109 325 978
L 225 1447
Q 659 1913 1178 2775
Q 672 2747 225 2703
L 106 3128
Q 688 3922 1300 5353
L 1775 5166
Q 1131 3897 669 3166
Q 1041 3178 1422 3194
Q 1638 3578 1869 4028
L 2331 3797
Q 1569 2478 900 1541
z
M 106 97
Q 1206 334 2331 616
Q 2313 366 2313 141
Q 1269 -103 244 -378
L 106 97
z
M 4463 4972
L 4731 5284
Q 5175 5003 5681 4609
L 5381 4247
Q 4863 4691 4463 4972
z
" transform="scale(0.015625)"/>
       <path id="MicrosoftYaHei-8ddd" d="M 2988 4953
L 6225 4953
L 6225 4503
L 3463 4503
L 3463 3328
L 5913 3328
L 5913 991
L 5450 991
L 5450 1228
L 3463 1228
L 3463 -128
L 6300 -128
L 6300 -578
L 2988 -578
L 2988 4953
z
M 69 -34
L 425 22
L 425 2478
L 831 2478
L 831 91
Q 1134 144 1438 203
L 1438 3122
L 938 3122
L 938 2916
L 525 2916
L 525 4984
L 2444 4984
L 2444 3122
L 1856 3122
L 1856 2022
L 2588 2022
L 2588 1628
L 1856 1628
L 1856 284
Q 2241 363 2631 447
Q 2638 178 2656 -9
Q 1219 -272 219 -516
L 69 -34
z
M 5450 2891
L 3463 2891
L 3463 1666
L 5450 1666
L 5450 2891
z
M 2025 3484
L 2025 4622
L 938 4622
L 938 3484
L 2025 3484
z
" transform="scale(0.015625)"/>
       <path id="MicrosoftYaHei-79bb" d="M 2381 459
Q 3106 484 3878 519
Q 3716 700 3550 878
L 3863 1122
Q 4350 634 4781 147
L 4450 -141
Q 4331 0 4213 141
Q 3416 103 2450 41
Q 2175 22 1863 -28
L 1688 416
Q 1950 578 2131 822
Q 2278 1025 2425 1278
L 1056 1278
L 1056 -822
L 588 -822
L 588 1691
L 2650 1691
Q 2784 1950 2916 2253
L 825 2253
L 825 4066
L 1281 4066
L 1281 2653
L 5113 2653
L 5113 4072
L 5569 4072
L 5569 2028
L 5113 2028
L 5113 2253
L 3472 2253
Q 3322 1963 3169 1691
L 5800 1691
L 5800 -122
Q 5800 -791 5175 -791
Q 4875 -791 4519 -778
Q 4494 -559 4431 -297
Q 4800 -334 5063 -334
Q 5331 -334 5331 -53
L 5331 1278
L 2928 1278
Q 2659 838 2381 459
z
M 200 4734
L 2919 4734
Q 2788 4969 2669 5153
L 3150 5372
Q 3309 5141 3541 4734
L 6200 4734
L 6200 4309
L 200 4309
L 200 4734
z
M 1613 3884
L 1781 4216
Q 2500 3984 3294 3700
Q 3934 3956 4500 4247
L 4688 3928
Q 4269 3709 3816 3513
Q 4281 3341 4775 3153
L 4606 2797
Q 3938 3072 3325 3303
Q 2569 3000 1731 2747
Q 1619 2947 1506 3103
Q 2169 3288 2772 3503
Q 2159 3719 1613 3884
z
" transform="scale(0.015625)"/>
       <path id="MicrosoftYaHei-6d" d="M 5522 0
L 4909 0
L 4909 1984
Q 4909 2547 4734 2789
Q 4559 3031 4159 3031
Q 3822 3031 3581 2715
Q 3341 2400 3341 1969
L 3341 0
L 2728 0
L 2728 2047
Q 2728 3031 1969 3031
Q 1619 3031 1389 2731
Q 1159 2431 1159 1966
L 1159 0
L 547 0
L 547 3456
L 1159 3456
L 1159 2909
L 1172 2909
Q 1541 3538 2250 3538
Q 2597 3538 2862 3347
Q 3128 3156 3231 2831
Q 3616 3538 4381 3538
Q 5522 3538 5522 2131
L 5522 0
z
" transform="scale(0.015625)"/>
      </defs>
      <use xlink:href="#MicrosoftYaHei-70df"/>
      <use xlink:href="#MicrosoftYaHei-5e55" transform="translate(100 0)"/>
      <use xlink:href="#MicrosoftYaHei-4e2d" transform="translate(200 0)"/>
      <use xlink:href="#MicrosoftYaHei-5fc3" transform="translate(300 0)"/>
      <use xlink:href="#MicrosoftYaHei-81f3" transform="translate(400 0)"/>
      <use xlink:href="#MicrosoftYaHei-89c6" transform="translate(500 0)"/>
      <use xlink:href="#MicrosoftYaHei-7ebf" transform="translate(600 0)"/>
      <use xlink:href="#MicrosoftYaHei-8ddd" transform="translate(700 0)"/>
      <use xlink:href="#MicrosoftYaHei-79bb" transform="translate(800 0)"/>
      <use xlink:href="#MicrosoftYaHei-20" transform="translate(900 0)"/>
      <use xlink:href="#MicrosoftYaHei-28" transform="translate(929.589844 0)"/>
      <use xlink:href="#MicrosoftYaHei-6d" transform="translate(962.988281 0)"/>
      <use xlink:href="#MicrosoftYaHei-29" transform="translate(1056.689453 0)"/>
     </g>
    </g>
   </g>
   <g id="line2d_29">
    <path d="M 58.843295 70.252719
L 109.834463 97.268716
L 160.340001 124.280323
L 214.73058 153.630885
L 234.155787 164.079574
L 235.127047 164.275724
L 237.069568 164.42996
L 237.555198 164.315894
L 287.575106 138.473406
L 337.109383 112.632826
L 385.6724 87.049215
L 433.264157 61.728071
L 480.370284 36.413011
L 495.424819 28.268144
L 495.424819 28.268144
" clip-path="url(#pba30ea5d1d)" style="fill: none; stroke: #0072b2; stroke-width: 1.8; stroke-linecap: square"/>
   </g>
   <g id="line2d_30">
    <path d="M 58.843295 78.333049
L 110.805723 105.09644
L 162.282521 131.859245
L 215.70184 159.889119
L 232.698896 168.72313
L 234.641417 169.546752
L 235.612677 169.75602
L 236.583938 169.668345
L 238.040828 169.141939
L 240.954609 167.72748
L 250.667213 162.645013
L 285.146955 144.286437
L 332.253081 118.96465
L 379.359208 93.390926
L 425.979704 67.826615
L 471.62894 42.541418
L 495.424819 29.258415
L 495.424819 29.258415
" clip-path="url(#pba30ea5d1d)" style="fill: none; stroke-dasharray: 5.18,2.24; stroke-dashoffset: 0; stroke: #e69f00; stroke-width: 1.4"/>
   </g>
   <g id="line2d_31">
    <path d="M 37.014219 70.253987
L 517.253895 70.253987
" clip-path="url(#pba30ea5d1d)" style="fill: none; stroke-dasharray: 1.1,1.815; stroke-dashoffset: 0; stroke: #000000; stroke-width: 1.1"/>
   </g>
   <g id="patch_4">
    <path d="M 37.014219 176.830414
L 37.014219 21.19375
" style="fill: none; stroke: #000000; stroke-width: 0.8; stroke-linejoin: miter; stroke-linecap: square"/>
   </g>
   <g id="patch_5">
    <path d="M 37.014219 176.830414
L 517.253895 176.830414
" style="fill: none; stroke: #000000; stroke-width: 0.8; stroke-linejoin: miter; stroke-linecap: square"/>
   </g>
   <g id="text_17">
    <!-- (a) 最优策略的遮蔽判据随时间变化 -->
    <g transform="translate(199.549682 15.19375) scale(0.1 -0.1)">
     <defs>
      <path id="MicrosoftYaHei-61" d="M 628 3216
Q 1144 3538 1819 3538
Q 3069 3538 3069 2225
L 3069 0
L 2463 0
L 2463 534
L 2447 534
Q 2088 -81 1388 -81
Q 884 -81 587 191
Q 291 463 291 925
Q 291 1894 1438 2053
L 2463 2197
Q 2463 3044 1763 3044
Q 1141 3044 628 2625
L 628 3216
z
M 1653 1625
Q 1228 1569 1067 1412
Q 906 1256 906 975
Q 906 728 1081 572
Q 1256 416 1544 416
Q 1944 416 2203 697
Q 2463 978 2463 1403
L 2463 1734
L 1653 1625
z
" transform="scale(0.015625)"/>
      <path id="MicrosoftYaHei-6700" d="M 169 -28
Q 475 3 781 38
L 781 2416
L 94 2416
L 94 2791
L 6288 2791
L 6288 2416
L 3025 2416
L 3025 331
Q 3325 375 3625 422
Q 3619 309 3631 22
Q 3338 -19 3025 -63
L 3025 -859
L 2600 -859
L 2600 -125
Q 1525 -278 281 -472
L 169 -28
z
M 1038 5053
L 5363 5053
L 5363 3047
L 4925 3047
L 4925 3191
L 1475 3191
L 1475 3047
L 1038 3047
L 1038 5053
z
M 3338 1609
L 3338 1972
L 5819 1972
L 5819 1609
Q 5500 844 4981 278
Q 5516 -113 6306 -316
Q 6144 -553 6025 -753
Q 5219 -488 4666 -34
Q 4128 -516 3413 -822
Q 3306 -634 3125 -428
Q 3834 -156 4347 266
Q 3825 825 3603 1609
L 3338 1609
z
M 1475 3553
L 4925 3553
L 4925 3953
L 1475 3953
L 1475 3553
z
M 4925 4691
L 1475 4691
L 1475 4291
L 4925 4291
L 4925 4691
z
M 5344 1609
L 4025 1609
Q 4222 994 4659 556
Q 5094 1013 5344 1609
z
M 2600 269
L 2600 691
L 1206 691
L 1206 88
Q 1913 172 2600 269
z
M 1206 1916
L 2600 1916
L 2600 2416
L 1206 2416
L 1206 1916
z
M 1206 1053
L 2600 1053
L 2600 1553
L 1206 1553
L 1206 1053
z
" transform="scale(0.015625)"/>
      <path id="MicrosoftYaHei-4f18" d="M 1825 3609
L 3184 3609
Q 3216 4322 3213 5272
L 3713 5272
Q 3719 4338 3688 3609
L 6188 3609
L 6188 3153
L 4475 3153
L 4475 228
Q 4475 -122 4838 -122
L 5244 -122
Q 5656 -122 5700 303
Q 5750 659 5781 1266
Q 6031 1166 6294 1066
Q 6244 528 6175 109
Q 6100 -291 5900 -447
Q 5713 -603 5275 -597
L 4763 -597
Q 4325 -597 4150 -422
Q 3969 -259 3969 184
L 3969 3153
L 3663 3153
Q 3600 791 1950 -803
Q 1775 -597 1575 -397
Q 3100 1028 3159 3153
L 1825 3153
L 1825 3609
z
M 88 2334
Q 1056 3641 1556 5291
L 2063 5122
Q 1753 4253 1388 3522
L 1388 -809
L 913 -809
L 913 2666
Q 616 2184 288 1778
Q 194 2047 88 2334
z
M 4600 5184
Q 5269 4759 5713 4391
Q 5538 4197 5388 3991
Q 4875 4447 4325 4841
L 4600 5184
z
" transform="scale(0.015625)"/>
      <path id="MicrosoftYaHei-7b56" d="M 6306 -128
Q 6094 -397 5969 -591
Q 4284 122 3438 1069
L 3438 -841
L 2975 -841
L 2975 1053
Q 1894 6 413 -666
Q 250 -447 88 -272
Q 1709 366 2975 1622
L 2975 2034
L 1269 2034
L 1269 828
L 813 828
L 813 2422
L 2975 2422
L 2975 2928
L 263 2928
L 263 3322
L 2975 3322
L 2975 3703
L 3438 3703
L 3438 3322
L 6156 3322
L 6156 2928
L 3438 2928
L 3438 2422
L 5706 2422
L 5706 1403
Q 5706 784 5069 784
Q 4813 784 4513 803
Q 4488 1047 4438 1272
Q 4763 1222 4950 1222
Q 5250 1222 5250 1516
L 5250 2034
L 3438 2034
L 3438 1625
Q 4619 372 6306 -128
z
M 1294 5347
L 1831 5347
Q 1688 5041 1513 4759
L 3325 4759
L 3325 4372
L 1244 4372
Q 875 3878 388 3459
Q 263 3609 75 3797
Q 856 4428 1294 5347
z
M 4006 5347
L 4513 5347
Q 4375 5031 4231 4759
L 6225 4759
L 6225 4372
L 4013 4372
Q 3778 3981 3525 3697
Q 3388 3797 3088 3934
Q 3663 4553 4006 5347
z
M 4781 3416
Q 4644 3628 4263 4072
L 4588 4303
Q 4919 3991 5150 3697
L 4781 3416
z
M 1988 3416
Q 1750 3728 1469 4053
L 1794 4284
Q 2094 3997 2356 3697
L 1988 3416
z
" transform="scale(0.015625)"/>
      <path id="MicrosoftYaHei-7565" d="M 413 4716
L 2600 4716
L 2600 -222
L 2188 -222
L 2188 97
L 825 97
L 825 -347
L 413 -347
L 413 4716
z
M 2638 3378
Q 3269 4222 3719 5341
L 4169 5197
Q 4044 4913 3919 4653
L 5888 4653
L 5888 4234
Q 5453 3375 4819 2756
Q 5434 2328 6331 2109
Q 6194 1853 6094 1591
Q 5122 1919 4466 2450
Q 3797 1925 2906 1516
Q 2756 1772 2619 1947
Q 3463 2269 4125 2763
Q 3747 3159 3428 3734
Q 3200 3353 2969 3047
Q 2781 3266 2638 3378
z
M 3200 1584
L 5756 1584
L 5756 -847
L 5294 -847
L 5294 -547
L 3663 -547
L 3663 -847
L 3200 -847
L 3200 1584
z
M 5294 1147
L 3663 1147
L 3663 -109
L 5294 -109
L 5294 1147
z
M 5363 4228
L 3703 4228
L 3666 4159
Q 4013 3475 4466 3041
Q 4963 3500 5363 4228
z
M 825 516
L 1300 516
L 1300 2209
L 825 2209
L 825 516
z
M 1713 516
L 2188 516
L 2188 2209
L 1713 2209
L 1713 516
z
M 2188 4297
L 1713 4297
L 1713 2628
L 2188 2628
L 2188 4297
z
M 825 2628
L 1300 2628
L 1300 4297
L 825 4297
L 825 2628
z
" transform="scale(0.015625)"/>
      <path id="MicrosoftYaHei-7684" d="M 356 4284
L 988 4284
Q 1219 4853 1369 5322
L 1894 5172
Q 1697 4694 1513 4284
L 2763 4284
L 2763 -691
L 2263 -691
L 2263 -203
L 856 -203
L 856 -734
L 356 -734
L 356 4284
z
M 2856 3003
Q 3444 3934 3850 5322
L 4375 5191
Q 4216 4719 4050 4303
L 6063 4303
Q 5988 1091 5938 259
Q 5894 -722 4906 -722
Q 4338 -722 3750 -684
Q 3713 -372 3650 -128
L 3669 -128
Q 4294 -216 4813 -216
Q 5381 -216 5425 384
Q 5494 1316 5525 3834
L 3850 3834
Q 3578 3231 3288 2772
Q 3119 2891 2856 3003
z
M 856 266
L 2263 266
L 2263 1847
L 856 1847
L 856 266
z
M 2263 3816
L 856 3816
L 856 2297
L 2263 2297
L 2263 3816
z
M 3406 2578
L 3788 2859
Q 4481 2041 4894 1441
L 4431 1116
Q 3988 1841 3406 2578
z
" transform="scale(0.015625)"/>
      <path id="MicrosoftYaHei-906e" d="M 3856 5166
L 4288 5353
Q 4488 5019 4659 4653
L 6256 4653
L 6256 4216
L 2506 4216
L 2506 3366
L 3300 3366
L 3300 4003
L 3738 4003
L 3738 3366
L 4981 3366
L 4981 4003
L 5419 4003
L 5419 3366
L 6225 3366
L 6225 2953
L 5419 2953
L 5419 1641
L 4981 1641
L 4981 1878
L 3738 1878
L 3738 1641
L 3300 1641
L 3300 2953
L 2506 2953
L 2506 2703
Q 2506 1241 1838 259
Q 1669 478 1494 672
Q 2056 1422 2056 2691
L 2056 4653
L 4138 4653
Q 4003 4922 3856 5166
z
M 2681 -203
L 4106 -234
L 6319 -178
Q 6250 -384 6144 -672
L 3875 -678
L 2631 -647
Q 1538 -641 1081 97
Q 763 -228 331 -753
L 75 -234
Q 522 209 875 541
L 875 2647
L 131 2647
L 131 3097
L 1350 3097
L 1350 438
Q 1750 -188 2681 -203
z
M 3738 2278
L 4981 2278
L 4981 2953
L 3738 2953
L 3738 2278
z
M 925 5209
Q 1219 4709 1613 3909
L 1131 3672
Q 675 4666 488 5003
L 925 5209
z
M 5244 1316
L 5644 1459
Q 5944 834 6163 266
L 5738 103
Q 5531 666 5244 1316
z
M 2831 1434
L 3238 1303
Q 3038 659 2775 47
Q 2631 128 2363 241
Q 2650 816 2831 1434
z
M 4363 1284
L 4775 1372
Q 4950 872 5113 291
L 4694 159
Q 4569 691 4363 1284
z
M 3519 1253
L 3925 1322
Q 4081 616 4131 216
L 3688 141
Q 3650 622 3519 1253
z
" transform="scale(0.015625)"/>
      <path id="MicrosoftYaHei-853d" d="M 4750 3803
Q 4650 3475 4547 3172
L 6225 3172
L 6225 2766
L 5719 2766
Q 5653 1266 5197 463
Q 5631 -3 6306 -341
Q 6156 -559 6019 -766
Q 5391 -369 4947 94
Q 4553 -394 3875 -841
Q 3756 -659 3588 -472
Q 4266 -63 4653 444
Q 4238 1031 4059 1950
Q 3947 1703 3825 1478
Q 3725 1697 3563 1897
Q 4056 2859 4313 3891
L 4750 3803
z
M 1738 3897
L 2156 3897
L 2156 2603
L 3513 2603
L 3513 -134
Q 3513 -759 2938 -759
Q 2681 -759 2413 -753
Q 2381 -566 2325 -322
Q 2619 -347 2838 -347
Q 3100 -347 3100 -53
L 3100 2241
L 2156 2241
L 2156 -759
L 1738 -759
L 1738 2241
L 800 2241
L 800 -791
L 388 -791
L 388 2603
L 1738 2603
L 1738 3897
z
M 150 4784
L 2050 4784
L 2050 5328
L 2506 5328
L 2506 4784
L 3863 4784
L 3863 5328
L 4319 5328
L 4319 4784
L 6269 4784
L 6269 4372
L 4319 4372
L 4319 3941
L 3863 3941
L 3863 4372
L 2506 4372
L 2506 3997
L 2050 3997
L 2050 4372
L 150 4372
L 150 4784
z
M 5294 2766
L 4400 2766
Q 4366 2675 4331 2588
Q 4494 1478 4903 838
Q 5250 1516 5294 2766
z
M 1181 1816
L 1544 1759
Q 1456 941 1338 316
L 981 397
Q 1131 1066 1181 1816
z
M 2650 1841
Q 2813 1178 2938 447
L 2569 359
Q 2469 1084 2325 1772
L 2650 1841
z
M 3456 3541
Q 3131 3166 2706 2778
L 2419 3041
Q 2781 3372 3138 3791
L 3456 3541
z
M 475 3534
L 744 3784
Q 1206 3384 1463 3116
L 1163 2803
Q 838 3191 475 3534
z
" transform="scale(0.015625)"/>
      <path id="MicrosoftYaHei-5224" d="M 200 1803
L 1622 1803
Q 1700 2222 1709 2697
L 331 2697
L 331 3134
L 1725 3134
Q 1756 3959 1756 5259
L 2244 5259
Q 2238 4016 2219 3134
L 3594 3134
L 3594 2697
L 2209 2697
Q 2203 2225 2138 1803
L 3700 1803
L 3700 1366
L 2050 1366
Q 1716 -28 694 -872
Q 513 -653 313 -472
Q 1194 234 1519 1366
L 200 1366
L 200 1803
z
M 5475 5284
L 5963 5284
L 5963 53
Q 5963 -753 5169 -753
Q 4856 -753 4275 -741
Q 4244 -466 4188 -209
Q 4669 -259 5019 -259
Q 5475 -259 5475 228
L 5475 5284
z
M 4144 4584
L 4625 4584
L 4625 759
L 4144 759
L 4144 4584
z
M 2525 3728
Q 3000 4309 3313 4866
L 3756 4591
Q 3306 3928 2906 3434
L 2525 3728
z
M 269 4603
L 656 4853
Q 1075 4316 1444 3759
L 1013 3466
Q 606 4153 269 4603
z
" transform="scale(0.015625)"/>
      <path id="MicrosoftYaHei-636e" d="M 2900 1334
L 4188 1334
L 4188 2128
L 2731 2128
Q 2663 206 1844 -841
Q 1694 -647 1506 -447
Q 2288 516 2288 2509
L 2288 4947
L 5975 4947
L 5975 3134
L 5525 3134
L 5525 3328
L 2738 3328
L 2738 2553
L 4188 2553
L 4188 3209
L 4638 3209
L 4638 2553
L 6288 2553
L 6288 2128
L 4638 2128
L 4638 1334
L 5938 1334
L 5938 -778
L 5488 -778
L 5488 -416
L 3350 -416
L 3350 -778
L 2900 -778
L 2900 1334
z
M 100 1966
Q 544 2088 963 2213
L 963 3641
L 175 3641
L 175 4091
L 963 4091
L 963 5284
L 1425 5284
L 1425 4091
L 2106 4091
L 2106 3641
L 1425 3641
L 1425 2356
Q 1722 2450 2006 2547
Q 2013 2266 2044 2059
Q 1722 1956 1425 1856
L 1425 -34
Q 1425 -741 806 -753
Q 613 -759 231 -747
Q 206 -497 156 -228
Q 500 -266 681 -266
Q 963 -266 963 53
L 963 1703
Q 534 1559 163 1428
L 100 1966
z
M 5525 4534
L 2738 4534
L 2738 3741
L 5525 3741
L 5525 4534
z
M 5488 922
L 3350 922
L 3350 -9
L 5488 -9
L 5488 922
z
" transform="scale(0.015625)"/>
      <path id="MicrosoftYaHei-968f" d="M 3256 4641
L 4128 4641
Q 4247 4963 4331 5291
L 4756 5172
Q 4663 4897 4563 4641
L 6181 4641
L 6181 4228
L 4397 4228
Q 4266 3916 4122 3628
L 5794 3628
L 5794 791
Q 5794 134 5156 134
L 4569 134
Q 4563 178 4481 597
Q 4838 578 5056 578
Q 5369 578 5369 891
L 5369 1328
L 4113 1328
L 4113 122
L 3688 122
L 3688 2841
Q 3459 2475 3213 2153
Q 3119 2397 3019 2597
Q 3600 3394 3963 4228
L 3256 4228
L 3256 4641
z
M 2081 1809
Q 2225 666 1531 509
Q 1325 466 969 503
Q 925 697 844 991
Q 1163 916 1375 947
Q 1756 1009 1625 1809
Q 1531 2241 1075 2772
Q 1325 3578 1563 4459
L 831 4459
L 831 -809
L 388 -809
L 388 4909
L 2025 4909
L 2025 4459
Q 1788 3647 1550 2853
Q 1975 2359 2081 1809
z
M 3969 -172
Q 4688 -203 6244 -153
Q 6144 -409 6063 -647
Q 4763 -672 3956 -622
Q 3069 -584 2600 78
Q 2275 -366 1988 -834
L 1681 -447
Q 1891 -131 2444 572
L 2444 2709
L 1938 2709
L 1938 3134
L 2881 3134
L 2881 403
Q 3263 -156 3969 -172
z
M 4113 1716
L 5369 1716
L 5369 2278
L 4113 2278
L 4113 1716
z
M 5369 3228
L 4113 3228
L 4113 2666
L 5369 2666
L 5369 3228
z
M 2575 5253
Q 2881 4491 3044 3959
Q 2794 3878 2606 3797
Q 2450 4378 2181 5116
L 2575 5253
z
" transform="scale(0.015625)"/>
      <path id="MicrosoftYaHei-53d8" d="M 838 1634
L 838 2066
L 5088 2066
L 5088 1634
Q 4494 853 3659 309
Q 4675 -178 6313 -297
Q 6088 -609 5950 -822
Q 4275 -594 3178 34
Q 2122 -509 425 -866
Q 269 -622 106 -403
Q 1741 -122 2728 328
Q 2047 838 1553 1634
L 838 1634
z
M 231 4534
L 3081 4534
Q 2888 4884 2725 5141
L 3175 5359
Q 3481 4884 3600 4659
L 3359 4534
L 6200 4534
L 6200 4091
L 4181 4091
L 4181 2353
L 3700 2353
L 3700 4091
L 2694 4091
L 2694 2341
L 2213 2341
L 2213 4091
L 231 4091
L 231 4534
z
M 4475 1634
L 2116 1634
Q 2575 953 3197 572
Q 3947 1016 4475 1634
z
M 4556 3434
L 4900 3728
Q 5700 3009 6213 2459
L 5825 2116
Q 5219 2797 4556 3434
z
M 1381 3741
L 1756 3422
Q 1119 2691 500 2097
Q 344 2272 138 2447
Q 794 3009 1381 3741
z
" transform="scale(0.015625)"/>
      <path id="MicrosoftYaHei-5316" d="M 1844 1453
Q 2663 1834 3375 2331
L 3375 5197
L 3913 5197
L 3913 2734
Q 4869 3506 5613 4516
L 6069 4184
Q 5159 2975 3913 2069
L 3913 303
Q 3913 -122 4363 -122
L 5156 -122
Q 5581 -122 5650 284
Q 5738 709 5763 1266
Q 6025 1166 6313 1084
Q 6263 559 6181 122
Q 6063 -597 5281 -597
L 4225 -597
Q 3375 -597 3375 241
L 3375 1703
Q 2791 1328 2144 1016
Q 2013 1222 1844 1453
z
M 88 2222
Q 1175 3666 1688 5291
L 2231 5134
Q 1934 4359 1588 3675
L 1588 -797
L 1063 -797
L 1063 2734
Q 716 2172 325 1678
Q 219 1947 88 2222
z
" transform="scale(0.015625)"/>
     </defs>
     <use xlink:href="#MicrosoftYaHei-28"/>
     <use xlink:href="#MicrosoftYaHei-61" transform="translate(33.398438 0)"/>
     <use xlink:href="#MicrosoftYaHei-29" transform="translate(88.671875 0)"/>
     <use xlink:href="#MicrosoftYaHei-20" transform="translate(122.070312 0)"/>
     <use xlink:href="#MicrosoftYaHei-6700" transform="translate(151.660156 0)"/>
     <use xlink:href="#MicrosoftYaHei-4f18" transform="translate(251.660156 0)"/>
     <use xlink:href="#MicrosoftYaHei-7b56" transform="translate(351.660156 0)"/>
     <use xlink:href="#MicrosoftYaHei-7565" transform="translate(451.660156 0)"/>
     <use xlink:href="#MicrosoftYaHei-7684" transform="translate(551.660156 0)"/>
     <use xlink:href="#MicrosoftYaHei-906e" transform="translate(651.660156 0)"/>
     <use xlink:href="#MicrosoftYaHei-853d" transform="translate(751.660156 0)"/>
     <use xlink:href="#MicrosoftYaHei-5224" transform="translate(851.660156 0)"/>
     <use xlink:href="#MicrosoftYaHei-636e" transform="translate(951.660156 0)"/>
     <use xlink:href="#MicrosoftYaHei-968f" transform="translate(1051.660156 0)"/>
     <use xlink:href="#MicrosoftYaHei-65f6" transform="translate(1151.660156 0)"/>
     <use xlink:href="#MicrosoftYaHei-95f4" transform="translate(1251.660156 0)"/>
     <use xlink:href="#MicrosoftYaHei-53d8" transform="translate(1351.660156 0)"/>
     <use xlink:href="#MicrosoftYaHei-5316" transform="translate(1451.660156 0)"/>
    </g>
   </g>
   <g id="legend_1">
    <g id="line2d_32">
     <path d="M 44.214219 31.98875
L 52.214219 31.98875
L 60.214219 31.98875
" style="fill: none; stroke: #0072b2; stroke-width: 1.8; stroke-linecap: square"/>
    </g>
    <g id="text_18">
     <!-- 完整圆柱最不利视线 -->
     <g transform="translate(66.614219 34.78875) scale(0.08 -0.08)">
      <defs>
       <path id="MicrosoftYaHei-5b8c" d="M 275 1959
L 6150 1959
L 6150 1516
L 4131 1516
L 4131 191
Q 4131 -222 4538 -222
L 5200 -222
Q 5625 -222 5675 65
Q 5725 353 5744 884
Q 5969 797 6294 697
Q 6250 184 6181 -141
Q 6094 -678 5425 -678
L 4406 -678
Q 3625 -678 3625 122
L 3625 1516
L 2503 1516
Q 2488 -247 438 -834
Q 313 -628 125 -372
Q 1975 78 2006 1516
L 275 1516
L 275 1959
z
M 325 4534
L 3000 4534
Q 2878 4788 2688 5128
L 3175 5353
Q 3422 4878 3575 4534
L 6075 4534
L 6075 3384
L 5563 3384
L 5563 4091
L 838 4091
L 838 3384
L 325 3384
L 325 4534
z
M 1050 3253
L 5450 3253
L 5450 2816
L 1050 2816
L 1050 3253
z
" transform="scale(0.015625)"/>
       <path id="MicrosoftYaHei-6574" d="M 138 -234
L 1263 -234
L 1263 891
L 1713 891
L 1713 -234
L 3025 -234
L 3025 1178
L 550 1178
L 550 1578
L 5800 1578
L 5800 1178
L 3475 1178
L 3475 697
L 5525 697
L 5525 297
L 3475 297
L 3475 -234
L 6256 -234
L 6256 -634
L 138 -634
L 138 -234
z
M 25 2003
Q 825 2334 1481 2916
L 913 2916
L 913 2759
L 506 2759
L 506 4109
L 1650 4109
L 1650 4491
L 250 4491
L 250 4866
L 1650 4866
L 1650 5291
L 2069 5291
L 2069 4866
L 3425 4866
L 3425 4491
L 2069 4491
L 2069 4109
L 3213 4109
L 3213 2759
L 2806 2759
L 2806 2916
L 2069 2916
L 2069 2541
L 2225 2747
Q 2781 2484 3288 2216
L 3075 1872
Q 2550 2184 2069 2397
L 2069 1722
L 1650 1722
L 1650 2647
Q 1075 2078 288 1647
Q 175 1803 25 2003
z
M 3363 2078
Q 4050 2341 4519 2716
Q 4144 3134 3938 3716
Q 3788 3447 3631 3197
L 3256 3459
Q 3850 4253 4163 5322
L 4600 5191
Q 4481 4872 4356 4572
L 6263 4572
L 6263 4172
L 5850 4172
Q 5644 3316 5181 2741
Q 5638 2428 6325 2247
Q 6169 2047 6013 1778
Q 5319 2034 4844 2403
Q 4363 1984 3650 1678
Q 3525 1859 3363 2078
z
M 5400 4172
L 4219 4172
Q 4394 3484 4838 3022
Q 5244 3503 5400 4172
z
M 2806 3266
L 2806 3759
L 2069 3759
L 2069 3266
L 2806 3266
z
M 913 3266
L 1650 3266
L 1650 3759
L 913 3759
L 913 3266
z
" transform="scale(0.015625)"/>
       <path id="MicrosoftYaHei-5706" d="M 431 5047
L 5944 5047
L 5944 -834
L 5475 -834
L 5475 -534
L 900 -534
L 900 -834
L 431 -834
L 431 5047
z
M 1763 4222
L 4638 4222
L 4638 2834
L 4213 2834
L 4213 2978
L 2188 2978
L 2188 2834
L 1763 2834
L 1763 4222
z
M 3338 1378
Q 4269 903 5100 384
L 4825 28
Q 4131 509 3213 1022
Q 2919 347 1375 53
Q 1294 228 1144 466
Q 2425 672 2738 1097
Q 2981 1397 2969 2034
L 3406 2034
Q 3406 1666 3338 1378
z
M 1588 2572
L 4788 2572
L 4788 1059
L 4363 1059
L 4363 2184
L 2013 2184
L 2013 1009
L 1588 1009
L 1588 2572
z
M 4213 3366
L 4213 3834
L 2188 3834
L 2188 3366
L 4213 3366
z
M 5475 -97
L 5475 4609
L 900 4609
L 900 -97
L 5475 -97
z
" transform="scale(0.015625)"/>
       <path id="MicrosoftYaHei-67f1" d="M 2188 -16
L 3988 -16
L 3988 1809
L 2588 1809
L 2588 2259
L 3988 2259
L 3988 3747
L 2400 3747
L 2400 4197
L 6119 4197
L 6119 3747
L 4500 3747
L 4500 2259
L 5919 2259
L 5919 1809
L 4500 1809
L 4500 -16
L 6319 -16
L 6319 -466
L 2188 -466
L 2188 -16
z
M 63 1403
Q 641 2338 947 3584
L 156 3584
L 156 4016
L 981 4016
L 981 5291
L 1463 5291
L 1463 4016
L 2213 4016
L 2213 3584
L 1463 3584
L 1463 2503
L 1669 2697
Q 2019 2366 2375 1978
L 2025 1666
Q 1750 2009 1463 2316
L 1463 -816
L 981 -816
L 981 2450
Q 678 1478 263 853
Q 175 1122 63 1403
z
M 3631 5116
L 4044 5372
Q 4381 4972 4644 4572
L 4206 4284
Q 3981 4672 3631 5116
z
" transform="scale(0.015625)"/>
       <path id="MicrosoftYaHei-4e0d" d="M 225 4772
L 6181 4772
L 6181 4284
L 3881 4284
Q 3581 3766 3081 3053
L 3444 3053
L 3444 -866
L 2906 -866
L 2906 2859
Q 1838 1541 388 609
Q 231 834 38 1059
Q 2006 2291 3213 4284
L 225 4284
L 225 4772
z
M 4069 2859
Q 5238 2147 6325 1409
L 5969 916
Q 4681 1872 3763 2434
L 4069 2859
z
" transform="scale(0.015625)"/>
       <path id="MicrosoftYaHei-5229" d="M 75 741
Q 913 1653 1488 2997
L 106 2997
L 106 3453
L 1606 3453
L 1606 4391
Q 963 4328 331 4272
Q 288 4503 206 4747
Q 1706 4866 3269 5066
L 3394 4591
Q 2731 4509 2081 4441
L 2081 3453
L 3500 3453
L 3500 2997
L 2081 2997
L 2081 2159
L 2356 2422
Q 2944 1922 3525 1347
L 3144 959
Q 2763 1403 2081 2053
L 2081 -828
L 1606 -828
L 1606 2297
Q 1069 1084 325 178
Q 156 584 75 741
z
M 5444 5197
L 5938 5197
L 5938 -9
Q 5938 -803 5138 -797
Q 4881 -797 4306 -791
Q 4269 -534 4213 -228
Q 4719 -284 4981 -284
Q 5444 -291 5444 184
L 5444 5197
z
M 3963 4572
L 4438 4572
L 4438 622
L 3963 622
L 3963 4572
z
" transform="scale(0.015625)"/>
      </defs>
      <use xlink:href="#MicrosoftYaHei-5b8c"/>
      <use xlink:href="#MicrosoftYaHei-6574" transform="translate(100 0)"/>
      <use xlink:href="#MicrosoftYaHei-5706" transform="translate(200 0)"/>
      <use xlink:href="#MicrosoftYaHei-67f1" transform="translate(300 0)"/>
      <use xlink:href="#MicrosoftYaHei-6700" transform="translate(400 0)"/>
      <use xlink:href="#MicrosoftYaHei-4e0d" transform="translate(500 0)"/>
      <use xlink:href="#MicrosoftYaHei-5229" transform="translate(600 0)"/>
      <use xlink:href="#MicrosoftYaHei-89c6" transform="translate(700 0)"/>
      <use xlink:href="#MicrosoftYaHei-7ebf" transform="translate(800 0)"/>
     </g>
    </g>
    <g id="line2d_33">
     <path d="M 44.214219 44.3725
L 52.214219 44.3725
L 60.214219 44.3725
" style="fill: none; stroke-dasharray: 5.18,2.24; stroke-dashoffset: 0; stroke: #e69f00; stroke-width: 1.4"/>
    </g>
    <g id="text_19">
     <!-- 目标中心视线 -->
     <g transform="translate(66.614219 47.1725) scale(0.08 -0.08)">
      <defs>
       <path id="MicrosoftYaHei-76ee" d="M 944 5016
L 5469 5016
L 5469 -772
L 4938 -772
L 4938 -303
L 1475 -303
L 1475 -772
L 944 -772
L 944 5016
z
M 1475 1341
L 1475 159
L 4938 159
L 4938 1341
L 1475 1341
z
M 1475 2947
L 1475 1778
L 4938 1778
L 4938 2947
L 1475 2947
z
M 1475 4553
L 1475 3384
L 4938 3384
L 4938 4553
L 1475 4553
z
" transform="scale(0.015625)"/>
       <path id="MicrosoftYaHei-6807" d="M 75 1409
Q 769 2478 1025 3647
L 119 3647
L 119 4072
L 1069 4072
L 1069 5297
L 1506 5297
L 1506 4072
L 2356 4072
L 2356 3647
L 1506 3647
L 1506 2541
L 1775 2822
Q 2175 2478 2481 2159
L 2150 1816
Q 1850 2156 1506 2503
L 1506 -797
L 1069 -797
L 1069 2588
Q 738 1513 281 859
Q 194 1128 75 1409
z
M 2350 3097
L 6250 3097
L 6250 2659
L 4525 2659
L 4525 47
Q 4525 -734 3806 -734
Q 3469 -741 2975 -728
Q 2944 -503 2888 -209
Q 3319 -259 3675 -259
Q 4050 -259 4050 203
L 4050 2659
L 2350 2659
L 2350 3097
z
M 2638 4928
L 5963 4928
L 5963 4491
L 2638 4491
L 2638 4928
z
M 4938 1853
L 5381 2066
Q 5975 928 6369 72
L 5869 -147
Q 5463 822 4938 1853
z
M 2931 2066
L 3400 1878
Q 2888 734 2381 -153
Q 2188 -41 1925 66
Q 2425 872 2931 2066
z
" transform="scale(0.015625)"/>
      </defs>
      <use xlink:href="#MicrosoftYaHei-76ee"/>
      <use xlink:href="#MicrosoftYaHei-6807" transform="translate(100 0)"/>
      <use xlink:href="#MicrosoftYaHei-4e2d" transform="translate(200 0)"/>
      <use xlink:href="#MicrosoftYaHei-5fc3" transform="translate(300 0)"/>
      <use xlink:href="#MicrosoftYaHei-89c6" transform="translate(400 0)"/>
      <use xlink:href="#MicrosoftYaHei-7ebf" transform="translate(500 0)"/>
     </g>
    </g>
    <g id="line2d_34">
     <path d="M 154.614219 31.98875
L 162.614219 31.98875
L 170.614219 31.98875
" style="fill: none; stroke-dasharray: 1.1,1.815; stroke-dashoffset: 0; stroke: #000000; stroke-width: 1.1"/>
    </g>
    <g id="text_20">
     <!-- 烟幕有效半径 10 m -->
     <g transform="translate(177.014219 34.78875) scale(0.08 -0.08)">
      <defs>
       <path id="MicrosoftYaHei-6709" d="M 1856 -816
L 1363 -816
L 1363 2419
Q 909 1891 363 1403
Q 231 1622 63 1859
Q 1269 2869 1947 4097
L 238 4097
L 238 4559
L 2181 4559
Q 2359 4950 2488 5359
L 3006 5241
Q 2881 4894 2731 4559
L 6263 4559
L 6263 4097
L 2506 4097
Q 2313 3728 2081 3378
L 5506 3378
L 5506 41
Q 5506 -734 4750 -734
Q 4419 -741 3744 -741
Q 3713 -528 3650 -228
Q 4225 -272 4575 -272
Q 5006 -272 5006 153
L 5006 597
L 1856 597
L 1856 -816
z
M 1856 1022
L 5006 1022
L 5006 1772
L 1856 1772
L 1856 1022
z
M 5006 2941
L 1856 2941
L 1856 2197
L 5006 2197
L 5006 2941
z
" transform="scale(0.015625)"/>
       <path id="MicrosoftYaHei-6548" d="M 4088 5334
L 4581 5253
Q 4453 4653 4259 4122
L 6269 4122
L 6269 3697
L 5838 3697
Q 5672 1869 5050 841
Q 5572 128 6388 -347
Q 6188 -622 6050 -841
Q 5250 -313 4728 391
Q 4153 -328 3300 -891
Q 3163 -709 2944 -497
Q 3872 125 4428 853
Q 3897 1797 3753 3025
Q 3603 2766 3431 2528
Q 3300 2716 3119 2928
Q 3844 3941 4088 5334
z
M 694 1909
L 1031 2203
Q 1456 1800 1863 1394
Q 2138 1847 2350 2378
L 2800 2141
Q 2538 1550 2209 1047
Q 2659 591 3088 134
L 2669 -222
Q 2275 225 1913 625
Q 1250 -238 356 -809
Q 238 -641 31 -397
Q 947 128 1584 981
Q 1113 1491 694 1909
z
M 5344 3697
L 4125 3697
Q 4222 2322 4741 1338
Q 5263 2306 5344 3697
z
M 175 4297
L 3325 4297
L 3325 3872
L 175 3872
L 175 4297
z
M 1063 3628
L 1475 3372
Q 963 2641 413 1953
Q 256 2084 44 2241
Q 506 2797 1063 3628
z
M 2344 3609
Q 2744 3197 3263 2591
L 2894 2278
Q 2506 2759 2006 3341
L 2344 3609
z
M 1306 5141
L 1731 5359
Q 1988 4953 2206 4547
L 1769 4322
Q 1544 4772 1306 5141
z
" transform="scale(0.015625)"/>
       <path id="MicrosoftYaHei-534a" d="M 125 1484
L 2931 1484
L 2931 2572
L 381 2572
L 381 3047
L 2931 3047
L 2931 5316
L 3463 5316
L 3463 3047
L 6025 3047
L 6025 2572
L 3463 2572
L 3463 1484
L 6275 1484
L 6275 1009
L 3463 1009
L 3463 -822
L 2931 -822
L 2931 1009
L 125 1009
L 125 1484
z
M 4200 3709
Q 4750 4222 5363 4959
L 5800 4609
Q 5194 3928 4575 3359
L 4200 3709
z
M 600 4641
L 969 4947
Q 1550 4397 2156 3728
L 1725 3359
Q 1081 4159 600 4641
z
" transform="scale(0.015625)"/>
       <path id="MicrosoftYaHei-5f84" d="M 2388 4466
L 2388 4891
L 5738 4891
L 5738 4459
Q 5216 3866 4619 3391
Q 5559 2888 6338 2428
L 6038 1972
Q 5256 2494 4216 3091
Q 3253 2422 2106 2041
Q 2000 2247 1850 2459
Q 3894 3153 5025 4466
L 2388 4466
z
M 1931 -66
L 3881 -66
L 3881 1403
L 2288 1403
L 2288 1828
L 5950 1828
L 5950 1403
L 4344 1403
L 4344 -66
L 6300 -66
L 6300 -491
L 1931 -491
L 1931 -66
z
M 38 1572
Q 975 2353 1750 3809
L 2175 3541
Q 1844 2953 1475 2444
L 1475 -816
L 994 -816
L 994 1831
Q 638 1419 250 1066
Q 156 1328 38 1572
z
M 106 3616
Q 1038 4359 1638 5391
L 2063 5116
Q 1356 3997 344 3134
Q 238 3359 106 3616
z
" transform="scale(0.015625)"/>
      </defs>
      <use xlink:href="#MicrosoftYaHei-70df"/>
      <use xlink:href="#MicrosoftYaHei-5e55" transform="translate(100 0)"/>
      <use xlink:href="#MicrosoftYaHei-6709" transform="translate(200 0)"/>
      <use xlink:href="#MicrosoftYaHei-6548" transform="translate(300 0)"/>
      <use xlink:href="#MicrosoftYaHei-534a" transform="translate(400 0)"/>
      <use xlink:href="#MicrosoftYaHei-5f84" transform="translate(500 0)"/>
      <use xlink:href="#MicrosoftYaHei-20" transform="translate(600 0)"/>
      <use xlink:href="#MicrosoftYaHei-31" transform="translate(629.589844 0)"/>
      <use xlink:href="#MicrosoftYaHei-30" transform="translate(688.232422 0)"/>
      <use xlink:href="#MicrosoftYaHei-20" transform="translate(746.875 0)"/>
      <use xlink:href="#MicrosoftYaHei-6d" transform="translate(776.464844 0)"/>
     </g>
    </g>
    <g id="patch_6">
     <path d="M 154.614219 47.1725
L 170.614219 47.1725
L 170.614219 41.5725
L 154.614219 41.5725
z
" style="fill: #56b4e9; opacity: 0.22; stroke: #56b4e9; stroke-linejoin: miter"/>
    </g>
    <g id="text_21">
     <!-- 完整圆柱有效遮蔽 -->
     <g transform="translate(177.014219 47.1725) scale(0.08 -0.08)">
      <use xlink:href="#MicrosoftYaHei-5b8c"/>
      <use xlink:href="#MicrosoftYaHei-6574" transform="translate(100 0)"/>
      <use xlink:href="#MicrosoftYaHei-5706" transform="translate(200 0)"/>
      <use xlink:href="#MicrosoftYaHei-67f1" transform="translate(300 0)"/>
      <use xlink:href="#MicrosoftYaHei-6709" transform="translate(400 0)"/>
      <use xlink:href="#MicrosoftYaHei-6548" transform="translate(500 0)"/>
      <use xlink:href="#MicrosoftYaHei-906e" transform="translate(600 0)"/>
      <use xlink:href="#MicrosoftYaHei-853d" transform="translate(700 0)"/>
     </g>
    </g>
   </g>
  </g>
  <g id="axes_2">
   <g id="patch_7">
    <path d="M 37.014219 296.384051
L 517.253895 296.384051
L 517.253895 225.640113
L 37.014219 225.640113
z
" style="fill: #ffffff"/>
   </g>
   <g id="PolyCollection_1">
    <path d="M 87.716667 242.790159
L 87.716667 230.999502
L 1459.830028 230.999502
L 1459.830028 242.790159
z
" clip-path="url(#p7dd1f87023)" style="fill: #6b7280; fill-opacity: 0.45"/>
   </g>
   <g id="PolyCollection_2">
    <path d="M 87.718823 265.299594
L 87.718823 253.508937
L 402.459104 253.508937
L 402.459104 265.299594
z
" clip-path="url(#p7dd1f87023)" style="fill: #56b4e9"/>
   </g>
   <g id="matplotlib.axis_3">
    <g id="xtick_7">
     <g id="line2d_35">
      <g>
       <use xlink:href="#mb91e9bab68" x="37.014219" y="296.384051" style="stroke: #000000; stroke-width: 0.8"/>
      </g>
     </g>
     <g id="text_22">
      <!-- 0 -->
      <g transform="translate(34.668594 309.779051) scale(0.08 -0.08)">
       <use xlink:href="#MicrosoftYaHei-30"/>
      </g>
     </g>
    </g>
    <g id="xtick_8">
     <g id="line2d_36">
      <g>
       <use xlink:href="#mb91e9bab68" x="105.619887" y="296.384051" style="stroke: #000000; stroke-width: 0.8"/>
      </g>
     </g>
     <g id="text_23">
      <!-- 1 -->
      <g transform="translate(103.274262 309.779051) scale(0.08 -0.08)">
       <use xlink:href="#MicrosoftYaHei-31"/>
      </g>
     </g>
    </g>
    <g id="xtick_9">
     <g id="line2d_37">
      <g>
       <use xlink:href="#mb91e9bab68" x="174.225555" y="296.384051" style="stroke: #000000; stroke-width: 0.8"/>
      </g>
     </g>
     <g id="text_24">
      <!-- 2 -->
      <g transform="translate(171.87993 309.779051) scale(0.08 -0.08)">
       <use xlink:href="#MicrosoftYaHei-32"/>
      </g>
     </g>
    </g>
    <g id="xtick_10">
     <g id="line2d_38">
      <g>
       <use xlink:href="#mb91e9bab68" x="242.831223" y="296.384051" style="stroke: #000000; stroke-width: 0.8"/>
      </g>
     </g>
     <g id="text_25">
      <!-- 3 -->
      <g transform="translate(240.485598 309.779051) scale(0.08 -0.08)">
       <use xlink:href="#MicrosoftYaHei-33"/>
      </g>
     </g>
    </g>
    <g id="xtick_11">
     <g id="line2d_39">
      <g>
       <use xlink:href="#mb91e9bab68" x="311.436891" y="296.384051" style="stroke: #000000; stroke-width: 0.8"/>
      </g>
     </g>
     <g id="text_26">
      <!-- 4 -->
      <g transform="translate(309.091266 309.779051) scale(0.08 -0.08)">
       <use xlink:href="#MicrosoftYaHei-34"/>
      </g>
     </g>
    </g>
    <g id="xtick_12">
     <g id="line2d_40">
      <g>
       <use xlink:href="#mb91e9bab68" x="380.042559" y="296.384051" style="stroke: #000000; stroke-width: 0.8"/>
      </g>
     </g>
     <g id="text_27">
      <!-- 5 -->
      <g transform="translate(377.696934 309.779051) scale(0.08 -0.08)">
       <use xlink:href="#MicrosoftYaHei-35"/>
      </g>
     </g>
    </g>
    <g id="xtick_13">
     <g id="line2d_41">
      <g>
       <use xlink:href="#mb91e9bab68" x="448.648227" y="296.384051" style="stroke: #000000; stroke-width: 0.8"/>
      </g>
     </g>
     <g id="text_28">
      <!-- 6 -->
      <g transform="translate(446.302602 309.779051) scale(0.08 -0.08)">
       <use xlink:href="#MicrosoftYaHei-36"/>
      </g>
     </g>
    </g>
    <g id="xtick_14">
     <g id="line2d_42">
      <g>
       <use xlink:href="#mb91e9bab68" x="517.253895" y="296.384051" style="stroke: #000000; stroke-width: 0.8"/>
      </g>
     </g>
     <g id="text_29">
      <!-- 7 -->
      <g transform="translate(514.90827 309.779051) scale(0.08 -0.08)">
       <defs>
        <path id="MicrosoftYaHei-37" d="M 3422 4463
Q 2659 3131 2223 1998
Q 1788 866 1684 0
L 1047 0
Q 1163 853 1594 1947
Q 2025 3041 2747 4300
L 347 4300
L 347 4841
L 3422 4841
L 3422 4463
z
" transform="scale(0.015625)"/>
       </defs>
       <use xlink:href="#MicrosoftYaHei-37"/>
      </g>
     </g>
    </g>
    <g id="text_30">
     <!-- 任务下达后时间 (s) -->
     <g transform="translate(239.212416 322.962176) scale(0.09 -0.09)">
      <use xlink:href="#MicrosoftYaHei-4efb"/>
      <use xlink:href="#MicrosoftYaHei-52a1" transform="translate(100 0)"/>
      <use xlink:href="#MicrosoftYaHei-4e0b" transform="translate(200 0)"/>
      <use xlink:href="#MicrosoftYaHei-8fbe" transform="translate(300 0)"/>
      <use xlink:href="#MicrosoftYaHei-540e" transform="translate(400 0)"/>
      <use xlink:href="#MicrosoftYaHei-65f6" transform="translate(500 0)"/>
      <use xlink:href="#MicrosoftYaHei-95f4" transform="translate(600 0)"/>
      <use xlink:href="#MicrosoftYaHei-20" transform="translate(700 0)"/>
      <use xlink:href="#MicrosoftYaHei-28" transform="translate(729.589844 0)"/>
      <use xlink:href="#MicrosoftYaHei-73" transform="translate(762.988281 0)"/>
      <use xlink:href="#MicrosoftYaHei-29" transform="translate(809.277344 0)"/>
     </g>
    </g>
   </g>
   <g id="matplotlib.axis_4">
    <g id="ytick_9">
     <g id="line2d_43">
      <g>
       <use xlink:href="#ma178691ded" x="37.014219" y="281.377761" style="stroke: #000000; stroke-width: 0.8"/>
      </g>
     </g>
     <g id="text_31">
      <!-- 事件 -->
      <g transform="translate(14.014219 284.575261) scale(0.08 -0.08)">
       <defs>
        <path id="MicrosoftYaHei-4e8b" d="M 531 734
L 2975 734
L 2975 1203
L 144 1203
L 144 1591
L 2975 1591
L 2975 2053
L 550 2053
L 550 2428
L 2975 2428
L 2975 2853
L 1388 2853
L 1388 2691
L 950 2691
L 950 4034
L 2975 4034
L 2975 4447
L 163 4447
L 163 4834
L 2975 4834
L 2975 5322
L 3438 5322
L 3438 4834
L 6244 4834
L 6244 4447
L 3438 4447
L 3438 4034
L 5463 4034
L 5463 2691
L 5025 2691
L 5025 2853
L 3438 2853
L 3438 2428
L 5600 2428
L 5600 1591
L 6294 1591
L 6294 1203
L 5600 1203
L 5600 59
L 5150 59
L 5150 359
L 3438 359
L 3438 -9
Q 3438 -759 2713 -766
Q 2369 -766 1813 -753
Q 1788 -541 1738 -234
Q 2225 -297 2606 -297
Q 2975 -297 2975 78
L 2975 359
L 531 359
L 531 734
z
M 3438 734
L 5150 734
L 5150 1203
L 3438 1203
L 3438 734
z
M 5150 2053
L 3438 2053
L 3438 1591
L 5150 1591
L 5150 2053
z
M 5025 3684
L 3438 3684
L 3438 3203
L 5025 3203
L 5025 3684
z
M 1388 3203
L 2975 3203
L 2975 3684
L 1388 3684
L 1388 3203
z
" transform="scale(0.015625)"/>
        <path id="MicrosoftYaHei-4ef6" d="M 1950 1816
L 4119 1816
L 4119 3397
L 2928 3397
Q 2675 2725 2375 2197
Q 2194 2372 1963 2528
Q 2556 3572 2838 4859
L 3344 4716
Q 3222 4250 3081 3834
L 4119 3834
L 4119 5284
L 4619 5284
L 4619 3834
L 6113 3834
L 6113 3397
L 4619 3397
L 4619 1816
L 6319 1816
L 6319 1378
L 4619 1378
L 4619 -809
L 4119 -809
L 4119 1378
L 1950 1378
L 1950 1816
z
M 69 2191
Q 931 3466 1456 5278
L 1969 5128
Q 1738 4400 1469 3763
L 1469 -816
L 975 -816
L 975 2731
Q 656 2141 294 1647
Q 200 1916 69 2191
z
" transform="scale(0.015625)"/>
       </defs>
       <use xlink:href="#MicrosoftYaHei-4e8b"/>
       <use xlink:href="#MicrosoftYaHei-4ef6" transform="translate(100 0)"/>
      </g>
     </g>
    </g>
    <g id="ytick_10">
     <g id="line2d_44">
      <g>
       <use xlink:href="#ma178691ded" x="37.014219" y="259.511453" style="stroke: #000000; stroke-width: 0.8"/>
      </g>
     </g>
     <g id="text_32">
      <!-- 遮蔽 -->
      <g transform="translate(14.014219 262.708953) scale(0.08 -0.08)">
       <use xlink:href="#MicrosoftYaHei-906e"/>
       <use xlink:href="#MicrosoftYaHei-853d" transform="translate(100 0)"/>
      </g>
     </g>
    </g>
    <g id="ytick_11">
     <g id="line2d_45">
      <g>
       <use xlink:href="#ma178691ded" x="37.014219" y="237.002018" style="stroke: #000000; stroke-width: 0.8"/>
      </g>
     </g>
     <g id="text_33">
      <!-- 烟幕 -->
      <g transform="translate(14.014219 240.199518) scale(0.08 -0.08)">
       <use xlink:href="#MicrosoftYaHei-70df"/>
       <use xlink:href="#MicrosoftYaHei-5e55" transform="translate(100 0)"/>
      </g>
     </g>
    </g>
   </g>
   <g id="patch_8">
    <path d="M 37.014219 296.384051
L 37.014219 225.640113
" style="fill: none; stroke: #000000; stroke-width: 0.8; stroke-linejoin: miter; stroke-linecap: square"/>
   </g>
   <g id="patch_9">
    <path d="M 37.014219 296.384051
L 517.253895 296.384051
" style="fill: none; stroke: #000000; stroke-width: 0.8; stroke-linejoin: miter; stroke-linecap: square"/>
   </g>
   <g id="PathCollection_1">
    <defs>
     <path id="C0_0_3736341215" d="M 0 3
C 0.795609 3 1.55874 2.683901 2.12132 2.12132
C 2.683901 1.55874 3 0.795609 3 -0
C 3 -0.795609 2.683901 -1.55874 2.12132 -2.12132
C 1.55874 -2.683901 0.795609 -3 0 -3
C -0.795609 -3 -1.55874 -2.683901 -2.12132 -2.12132
C -2.683901 -1.55874 -3 -0.795609 -3 0
C -3 0.795609 -2.683901 1.55874 -2.12132 2.12132
C -1.55874 2.683901 -0.795609 3 0 3
z
"/>
    </defs>
    <g clip-path="url(#p7dd1f87023)">
     <use xlink:href="#C0_0_3736341215" x="37.014219" y="281.377761" style="fill: #cc79a7; stroke: #000000"/>
    </g>
    <g clip-path="url(#p7dd1f87023)">
     <use xlink:href="#C0_0_3736341215" x="87.716667" y="281.377761" style="fill: #f0e442; stroke: #000000"/>
    </g>
   </g>
   <g id="text_34">
    <!-- 投放 -->
    <g transform="translate(37.014219 296.075281) scale(0.09 -0.09)">
     <defs>
      <path id="MicrosoftYaHei-6295" d="M 2450 1997
L 2450 2434
L 5663 2434
L 5663 2003
Q 5238 1013 4466 338
Q 5213 -131 6344 -316
Q 6169 -547 6031 -791
Q 4863 -534 4081 38
Q 3238 -553 2056 -841
Q 1919 -584 1781 -403
Q 2916 -166 3713 350
Q 3025 1009 2731 1997
L 2450 1997
z
M 94 1966
Q 531 2084 1006 2231
L 1006 3609
L 175 3609
L 175 4047
L 1006 4047
L 1006 5259
L 1475 5259
L 1475 4047
L 2231 4047
L 2231 3609
L 1475 3609
L 1475 2378
Q 1797 2481 2138 2597
Q 2131 2397 2150 2109
Q 1809 2003 1475 1894
L 1475 -72
Q 1475 -753 869 -753
L 263 -753
Q 238 -534 181 -222
Q 531 -259 750 -259
Q 1006 -259 1006 41
L 1006 1741
Q 578 1597 156 1447
L 94 1966
z
M 5619 3366
L 6319 3366
Q 6256 3141 6213 2909
L 5550 2909
Q 4831 2909 4831 3597
L 4831 4578
L 3444 4578
L 3444 4347
Q 3450 3141 2488 2547
Q 2331 2753 2150 2928
Q 2975 3378 2975 4347
L 2975 5016
L 5300 5016
L 5300 3666
Q 5300 3366 5619 3366
z
M 5144 1997
L 3184 1997
Q 3447 1166 4084 619
Q 4769 1178 5144 1997
z
" transform="scale(0.015625)"/>
      <path id="MicrosoftYaHei-653e" d="M 3956 5359
L 4456 5272
Q 4322 4681 4106 4128
L 6281 4128
L 6281 3666
L 5759 3666
Q 5638 1816 4884 725
Q 5447 25 6338 -353
Q 6131 -628 5994 -847
Q 5153 -394 4559 322
Q 3947 -356 3094 -903
Q 2950 -722 2738 -509
Q 3669 56 4259 731
Q 3713 1625 3563 2988
Q 3378 2669 3163 2366
Q 3031 2553 2850 2766
Q 3663 3884 3956 5359
z
M 156 4184
L 3169 4184
L 3169 3722
L 1400 3722
Q 1394 3166 1378 2703
L 2813 2703
Q 2750 1166 2694 241
Q 2638 -584 1981 -616
Q 1600 -622 1263 -609
Q 1225 -378 1156 -84
Q 1569 -128 1794 -128
Q 2175 -128 2206 347
Q 2269 1078 2306 2241
L 1359 2241
Q 1338 216 369 -853
Q 225 -641 38 -416
Q 625 247 750 1003
Q 909 1713 906 3722
L 156 3722
L 156 4184
z
M 5263 3666
L 3934 3666
Q 4034 2134 4584 1166
Q 5188 2131 5263 3666
z
M 1206 5141
L 1631 5366
Q 1900 4966 2144 4503
L 1706 4272
Q 1456 4753 1206 5141
z
" transform="scale(0.015625)"/>
     </defs>
     <use xlink:href="#MicrosoftYaHei-6295"/>
     <use xlink:href="#MicrosoftYaHei-653e" transform="translate(100 0)"/>
    </g>
   </g>
   <g id="text_35">
    <!-- 起爆 -->
    <g transform="translate(78.716667 296.075281) scale(0.09 -0.09)">
     <defs>
      <path id="MicrosoftYaHei-8d77" d="M 106 -266
Q 581 566 619 2241
L 1081 2216
Q 1059 1606 991 1091
Q 1225 588 1613 288
L 1613 2616
L 138 2616
L 138 3072
L 1419 3072
L 1419 3966
L 356 3966
L 356 4422
L 1419 4422
L 1419 5309
L 1906 5309
L 1906 4422
L 2956 4422
L 2956 3966
L 1906 3966
L 1906 3072
L 3081 3072
L 3081 2616
L 2081 2616
L 2081 1647
L 3031 1647
L 3031 1197
L 2081 1197
L 2081 16
Q 2516 -159 3081 -166
Q 4613 -178 6313 -141
Q 6200 -422 6138 -634
Q 4169 -641 2950 -616
Q 1438 -588 884 478
Q 709 -341 381 -853
Q 256 -559 106 -266
z
M 3850 1347
Q 3850 1009 4188 1009
L 5263 1009
Q 5613 1009 5656 1316
Q 5694 1597 5725 2153
Q 5919 2066 6200 1972
Q 6144 1366 6088 1084
Q 5994 559 5325 559
L 4069 559
Q 3375 559 3375 1272
L 3375 3303
L 5325 3303
L 5325 4491
L 3256 4491
L 3256 4941
L 5800 4941
L 5800 2641
L 5325 2641
L 5325 2853
L 3850 2853
L 3850 1347
z
" transform="scale(0.015625)"/>
      <path id="MicrosoftYaHei-7206" d="M 6375 672
Q 6225 484 6088 278
Q 5538 581 5122 972
Q 4844 788 4531 609
L 4294 916
Q 4597 1072 4863 1241
Q 4678 1450 4528 1684
L 3409 1684
Q 3244 1456 3047 1244
Q 3344 1072 3613 897
L 3363 584
Q 3094 788 2788 981
Q 2350 572 1800 241
Q 1675 416 1513 584
Q 2381 1050 2919 1684
L 1738 1684
L 1738 2034
L 2975 2034
L 2975 2516
L 1925 2516
L 1925 2866
L 2975 2866
L 2975 3334
L 2656 3334
L 2656 3178
L 2256 3178
L 2256 5053
L 5713 5053
L 5713 3178
L 5313 3178
L 5313 3334
L 4994 3334
L 4994 2866
L 6050 2866
L 6050 2516
L 4994 2516
L 4994 2034
L 6238 2034
L 6238 1684
L 4956 1684
Q 5497 1028 6375 672
z
M 856 5266
L 1269 5266
L 1269 3016
Q 1269 2363 1213 1794
Q 1641 1475 1988 1172
L 1688 822
Q 1425 1088 1153 1328
Q 953 -9 400 -809
Q 306 -603 125 -334
Q 856 734 856 3072
L 856 5266
z
M 3794 1484
L 4194 1484
L 4194 -84
Q 4194 -784 3600 -784
Q 3319 -784 2881 -772
Q 2850 -578 2788 -353
Q 3163 -397 3444 -397
Q 3794 -397 3794 -41
L 3794 1484
z
M 2656 3672
L 5313 3672
L 5313 4034
L 2656 4034
L 2656 3672
z
M 5313 4716
L 2656 4716
L 2656 4359
L 5313 4359
L 5313 4716
z
M 5969 -59
L 5769 -453
Q 5056 -134 4306 103
L 4475 478
Q 5231 228 5969 -59
z
M 1919 -9
Q 2631 178 3550 509
Q 3600 291 3656 128
Q 2894 -97 2113 -397
L 1919 -9
z
M 131 4097
L 519 4134
Q 613 3397 663 2578
L 275 2547
Q 238 3397 131 4097
z
M 3375 2034
L 4594 2034
L 4594 2516
L 3375 2516
L 3375 2034
z
M 3375 2866
L 4594 2866
L 4594 3334
L 3375 3334
L 3375 2866
z
M 1375 2809
Q 1588 3597 1663 4203
L 2050 4109
Q 1938 3484 1725 2691
L 1375 2809
z
" transform="scale(0.015625)"/>
     </defs>
     <use xlink:href="#MicrosoftYaHei-8d77"/>
     <use xlink:href="#MicrosoftYaHei-7206" transform="translate(100 0)"/>
    </g>
   </g>
   <g id="text_36">
    <!-- (b) 投放、起爆与有效遮蔽时间轴 -->
    <g transform="translate(204.119994 219.640113) scale(0.1 -0.1)">
     <defs>
      <path id="MicrosoftYaHei-62" d="M 1159 488
L 1159 0
L 547 0
L 547 5116
L 1159 5116
L 1159 2859
L 1172 2859
Q 1578 3538 2359 3538
Q 3009 3538 3392 3080
Q 3775 2622 3775 1828
Q 3775 953 3345 436
Q 2916 -81 2200 -81
Q 1525 -81 1172 488
L 1159 488
z
M 1156 1422
Q 1156 1003 1428 714
Q 1700 425 2109 425
Q 2597 425 2872 800
Q 3147 1175 3147 1838
Q 3147 2384 2890 2707
Q 2634 3031 2191 3031
Q 1741 3031 1448 2709
Q 1156 2388 1156 1891
L 1156 1422
z
" transform="scale(0.015625)"/>
      <path id="MicrosoftYaHei-3001" d="M 1931 -413
L 1556 -791
Q 1028 -216 397 306
L 728 650
Q 1506 22 1931 -413
z
" transform="scale(0.015625)"/>
      <path id="MicrosoftYaHei-4e0e" d="M 1163 2384
L 1163 2859
L 1413 5328
L 1931 5328
L 1834 4334
L 6269 4334
L 6269 3859
L 1791 3859
L 1694 2859
L 5813 2859
Q 5738 1547 5644 416
Q 5556 -247 5263 -478
Q 4981 -703 4322 -703
Q 3706 -697 2900 -678
Q 2863 -466 2794 -134
Q 3744 -203 4213 -209
Q 5050 -266 5125 447
Q 5206 1278 5263 2384
L 1163 2384
z
M 106 1409
L 4738 1409
L 4738 934
L 106 934
L 106 1409
z
" transform="scale(0.015625)"/>
      <path id="MicrosoftYaHei-8f74" d="M 2775 4078
L 4163 4078
L 4163 5253
L 4613 5253
L 4613 4078
L 6000 4078
L 6000 -784
L 5538 -784
L 5538 -384
L 3238 -384
L 3238 -784
L 2775 -784
L 2775 4078
z
M 706 2516
L 1369 2516
L 1369 3622
L 1819 3622
L 1819 2516
L 2400 2516
L 2400 2091
L 1819 2091
L 1819 1000
Q 2144 1044 2488 1091
Q 2456 847 2444 647
Q 2141 613 1819 569
L 1819 -841
L 1369 -841
L 1369 509
Q 784 431 131 334
L 81 803
Q 691 863 1369 944
L 1369 2091
L 244 2091
L 244 2516
Q 538 3275 769 3941
L 156 3941
L 156 4366
L 913 4366
Q 1084 4888 1213 5347
L 1688 5247
Q 1547 4809 1391 4366
L 2488 4366
L 2488 3941
L 1244 3941
Q 991 3234 706 2516
z
M 4613 53
L 5538 53
L 5538 1653
L 4613 1653
L 4613 53
z
M 3238 53
L 4163 53
L 4163 1653
L 3238 1653
L 3238 53
z
M 5538 3641
L 4613 3641
L 4613 2078
L 5538 2078
L 5538 3641
z
M 3238 2078
L 4163 2078
L 4163 3641
L 3238 3641
L 3238 2078
z
" transform="scale(0.015625)"/>
     </defs>
     <use xlink:href="#MicrosoftYaHei-28"/>
     <use xlink:href="#MicrosoftYaHei-62" transform="translate(33.398438 0)"/>
     <use xlink:href="#MicrosoftYaHei-29" transform="translate(97.265625 0)"/>
     <use xlink:href="#MicrosoftYaHei-20" transform="translate(130.664062 0)"/>
     <use xlink:href="#MicrosoftYaHei-6295" transform="translate(160.253906 0)"/>
     <use xlink:href="#MicrosoftYaHei-653e" transform="translate(260.253906 0)"/>
     <use xlink:href="#MicrosoftYaHei-3001" transform="translate(360.253906 0)"/>
     <use xlink:href="#MicrosoftYaHei-8d77" transform="translate(460.253906 0)"/>
     <use xlink:href="#MicrosoftYaHei-7206" transform="translate(560.253906 0)"/>
     <use xlink:href="#MicrosoftYaHei-4e0e" transform="translate(660.253906 0)"/>
     <use xlink:href="#MicrosoftYaHei-6709" transform="translate(760.253906 0)"/>
     <use xlink:href="#MicrosoftYaHei-6548" transform="translate(860.253906 0)"/>
     <use xlink:href="#MicrosoftYaHei-906e" transform="translate(960.253906 0)"/>
     <use xlink:href="#MicrosoftYaHei-853d" transform="translate(1060.253906 0)"/>
     <use xlink:href="#MicrosoftYaHei-65f6" transform="translate(1160.253906 0)"/>
     <use xlink:href="#MicrosoftYaHei-95f4" transform="translate(1260.253906 0)"/>
     <use xlink:href="#MicrosoftYaHei-8f74" transform="translate(1360.253906 0)"/>
    </g>
   </g>
   <g id="legend_2">
    <g id="patch_10">
     <path d="M 447.653895 239.235113
L 463.653895 239.235113
L 463.653895 233.635113
L 447.653895 233.635113
z
" style="fill: #6b7280; fill-opacity: 0.45"/>
    </g>
    <g id="text_37">
     <!-- 烟幕有效期 -->
     <g transform="translate(470.053895 239.235113) scale(0.08 -0.08)">
      <defs>
       <path id="MicrosoftYaHei-671f" d="M 3769 5066
L 5981 5066
L 5981 -3
Q 5981 -741 5281 -741
Q 4931 -741 4594 -722
Q 4569 -516 4519 -241
Q 4975 -284 5175 -284
Q 5519 -284 5519 59
L 5519 1372
L 4181 1372
Q 4113 3 3350 -903
Q 3181 -728 2975 -553
Q 3481 28 3619 653
Q 3769 1253 3769 2741
L 3769 5066
z
M 125 1141
L 713 1141
L 713 4028
L 200 4028
L 200 4453
L 713 4453
L 713 5216
L 1175 5216
L 1175 4453
L 2475 4453
L 2475 5241
L 2938 5241
L 2938 4453
L 3444 4453
L 3444 4028
L 2938 4028
L 2938 1141
L 3438 1141
L 3438 716
L 125 716
L 125 1141
z
M 4209 1784
L 5519 1784
L 5519 3009
L 4231 3009
Q 4238 2203 4209 1784
z
M 5519 4641
L 4231 4641
L 4231 3422
L 5519 3422
L 5519 4641
z
M 1175 1141
L 2475 1141
L 2475 1841
L 1175 1841
L 1175 1141
z
M 1175 2241
L 2475 2241
L 2475 2934
L 1175 2934
L 1175 2241
z
M 1175 3334
L 2475 3334
L 2475 4028
L 1175 4028
L 1175 3334
z
M 1175 597
L 1556 297
Q 925 -384 406 -847
Q 275 -697 75 -516
Q 669 -9 1175 597
z
M 1994 303
L 2294 609
Q 2731 284 3119 -47
L 2788 -403
Q 2438 -53 1994 303
z
" transform="scale(0.015625)"/>
      </defs>
      <use xlink:href="#MicrosoftYaHei-70df"/>
      <use xlink:href="#MicrosoftYaHei-5e55" transform="translate(100 0)"/>
      <use xlink:href="#MicrosoftYaHei-6709" transform="translate(200 0)"/>
      <use xlink:href="#MicrosoftYaHei-6548" transform="translate(300 0)"/>
      <use xlink:href="#MicrosoftYaHei-671f" transform="translate(400 0)"/>
     </g>
    </g>
    <g id="patch_11">
     <path d="M 447.653895 251.618863
L 463.653895 251.618863
L 463.653895 246.018863
L 447.653895 246.018863
z
" style="fill: #56b4e9"/>
    </g>
    <g id="text_38">
     <!-- 有效遮蔽 -->
     <g transform="translate(470.053895 251.618863) scale(0.08 -0.08)">
      <use xlink:href="#MicrosoftYaHei-6709"/>
      <use xlink:href="#MicrosoftYaHei-6548" transform="translate(100 0)"/>
      <use xlink:href="#MicrosoftYaHei-906e" transform="translate(200 0)"/>
      <use xlink:href="#MicrosoftYaHei-853d" transform="translate(300 0)"/>
     </g>
    </g>
   </g>
  </g>
 </g>
 <defs>
  <clipPath id="pba30ea5d1d">
   <rect x="37.014219" y="21.19375" width="480.239676" height="155.636664"/>
  </clipPath>
  <clipPath id="p7dd1f87023">
   <rect x="37.014219" y="225.640113" width="480.239676" height="70.743938"/>
  </clipPath>
 </defs>
</svg>
